<svg width="371" height="475" viewBox="0 0 371 475" fill="none" xmlns="http://www.w3.org/2000/svg">
<g filter="url(#filter0_d_2818_2012)">
<path d="M0 32.2031C0 14.53 14.3269 0.203125 32 0.203125H269C324.228 0.203125 369 44.9746 369 100.203V439.203C369 456.876 354.673 471.203 337 471.203H32C14.3269 471.203 0 456.876 0 439.203V32.2031Z" fill="white" shape-rendering="crispEdges"/>
<path d="M0.5 32.2031C0.5 14.8061 14.603 0.703125 32 0.703125H269C323.952 0.703125 368.5 45.2508 368.5 100.203V439.203C368.5 456.6 354.397 470.703 337 470.703H32C14.603 470.703 0.5 456.6 0.5 439.203V32.2031Z" stroke="#0B1623" shape-rendering="crispEdges"/>
<path d="M51.65 50.8281H47.4C46.4 50.8281 45.625 51.0698 45.075 51.5531C44.5417 52.0198 44.275 52.6948 44.275 53.5781H43.525V51.7031C43.525 50.3698 44.2333 49.7031 45.65 49.7031H54.675V50.8281L48.425 66.2031H45.4L51.65 50.8281ZM63.4414 52.9531C63.4414 52.1031 63.3247 51.4781 63.0914 51.0781C62.8581 50.6615 62.3914 50.4531 61.6914 50.4531H61.4414V49.7031H68.2414C71.6081 49.7031 74.1664 50.4198 75.9164 51.8531C77.6831 53.2698 78.5664 55.2698 78.5664 57.8531C78.5664 59.5031 78.1914 60.9615 77.4414 62.2281C76.7081 63.4781 75.6081 64.4531 74.1414 65.1531C72.6914 65.8531 70.9414 66.2031 68.8914 66.2031H63.4414V52.9531ZM68.8164 65.2031C69.9831 65.2031 71.0164 64.9115 71.9164 64.3281C72.8331 63.7448 73.5414 62.9031 74.0414 61.8031C74.5581 60.7031 74.8164 59.4198 74.8164 57.9531C74.8164 56.5031 74.5581 55.2365 74.0414 54.1531C73.5414 53.0531 72.8331 52.2031 71.9164 51.6031C70.9997 51.0031 69.9497 50.7031 68.7664 50.7031H68.5664C68.0164 50.7031 67.5747 50.7365 67.2414 50.8031L66.6914 50.8781V65.0281L67.2414 65.1281C67.5914 65.1781 68.0331 65.2031 68.5664 65.2031H68.8164ZM84.4496 66.4531C83.0996 66.4531 82.0496 66.1531 81.2996 65.5531C80.5663 64.9365 80.1996 64.1115 80.1996 63.0781C80.1996 62.2448 80.3913 61.5531 80.7746 61.0031C81.1746 60.4531 81.8663 60.0365 82.8496 59.7531C83.8329 59.4698 85.1996 59.3281 86.9496 59.3281H87.3246C87.3246 57.8781 87.1246 56.8531 86.7246 56.2531C86.3246 55.6365 85.7329 55.3281 84.9496 55.3281C84.2996 55.3281 83.7663 55.4865 83.3496 55.8031C82.9329 56.1198 82.6329 56.7115 82.4496 57.5781H81.0746C81.0746 57.0115 81.1079 56.5281 81.1746 56.1281C81.2579 55.7281 81.4329 55.3781 81.6996 55.0781C82.2163 54.4948 83.4663 54.2031 85.4496 54.2031C87.1163 54.2031 88.3829 54.6448 89.2496 55.5281C90.1329 56.3948 90.5746 57.7031 90.5746 59.4531V66.2031H88.4496L87.5746 65.0781H87.4496C87.2996 65.3115 87.0663 65.5448 86.7496 65.7781C86.1829 66.2281 85.4163 66.4531 84.4496 66.4531ZM85.1996 65.2031C85.5496 65.2031 85.8496 65.1365 86.0996 65.0031C86.3496 64.8531 86.5913 64.6531 86.8246 64.4031C87.0413 64.1698 87.2079 63.8948 87.3246 63.5781V60.4531H86.9496C85.7663 60.4531 84.9079 60.6698 84.3746 61.1031C83.8413 61.5198 83.5746 62.1781 83.5746 63.0781C83.5746 63.7615 83.7163 64.2865 83.9996 64.6531C84.2829 65.0198 84.6829 65.2031 85.1996 65.2031ZM93.884 70.3281C94.8007 70.3281 95.5423 70.1531 96.109 69.8031C96.6757 69.4531 97.134 68.8198 97.484 67.9031L98.009 66.5531L93.509 56.7031C92.959 55.5031 92.184 54.8365 91.184 54.7031V54.2031H93.384C94.1173 54.2031 94.7673 54.3865 95.334 54.7531C95.9007 55.1031 96.334 55.5865 96.634 56.2031L99.509 62.5031L102.559 54.4531H103.884L98.834 67.8281C98.3673 69.1281 97.8257 70.0115 97.209 70.4781C96.5923 70.9615 95.8173 71.2031 94.884 71.2031H93.884V70.3281ZM110.029 66.4531C108.079 66.4531 106.737 66.1115 106.004 65.4281C105.737 65.1781 105.57 64.8281 105.504 64.3781C105.437 63.9115 105.404 63.2698 105.404 62.4531H106.279C106.429 63.3198 106.77 64.0198 107.304 64.5531C107.837 65.0698 108.579 65.3281 109.529 65.3281C111.195 65.3281 112.029 64.7615 112.029 63.6281C112.029 63.1948 111.845 62.8365 111.479 62.5531C111.129 62.2698 110.562 61.9531 109.779 61.6031L108.479 61.0531C107.412 60.5865 106.612 60.0781 106.079 59.5281C105.545 58.9781 105.279 58.3115 105.279 57.5281C105.279 56.4781 105.712 55.6615 106.579 55.0781C107.462 54.4948 108.612 54.2031 110.029 54.2031C111.979 54.2031 113.32 54.5448 114.054 55.2281C114.32 55.4781 114.487 55.8281 114.554 56.2781C114.62 56.7281 114.654 57.3698 114.654 58.2031H113.779C113.629 57.3365 113.287 56.6448 112.754 56.1281C112.22 55.5948 111.479 55.3281 110.529 55.3281C109.812 55.3281 109.279 55.4865 108.929 55.8031C108.579 56.1031 108.404 56.5115 108.404 57.0281C108.404 57.4448 108.545 57.7948 108.829 58.0781C109.129 58.3448 109.579 58.6115 110.179 58.8781L111.679 59.5031C112.912 60.0198 113.795 60.5448 114.329 61.0781C114.879 61.5948 115.154 62.2781 115.154 63.1281C115.154 64.1948 114.679 65.0198 113.729 65.6031C112.795 66.1698 111.562 66.4531 110.029 66.4531ZM124.623 52.9531C124.623 52.1031 124.506 51.4781 124.273 51.0781C124.04 50.6615 123.573 50.4531 122.873 50.4531H122.623V49.7031H129.498C131.215 49.7031 132.765 50.0448 134.148 50.7281C135.548 51.3948 136.248 52.7281 136.248 54.7281C136.248 56.0281 135.881 57.0365 135.148 57.7531C134.431 58.4698 133.623 58.9448 132.723 59.1781C131.823 59.4115 130.998 59.5281 130.248 59.5281H127.873V66.2031H124.623V52.9531ZM129.373 58.5281C130.356 58.5281 131.165 58.2281 131.798 57.6281C132.431 57.0281 132.748 56.0198 132.748 54.6031C132.748 53.2031 132.431 52.2031 131.798 51.6031C131.181 51.0031 130.415 50.7031 129.498 50.7031C129.015 50.7031 128.64 50.7365 128.373 50.8031L127.873 50.8781V58.5281H129.373ZM141.456 66.4531C140.106 66.4531 139.056 66.1531 138.306 65.5531C137.573 64.9365 137.206 64.1115 137.206 63.0781C137.206 62.2448 137.398 61.5531 137.781 61.0031C138.181 60.4531 138.873 60.0365 139.856 59.7531C140.84 59.4698 142.206 59.3281 143.956 59.3281H144.331C144.331 57.8781 144.131 56.8531 143.731 56.2531C143.331 55.6365 142.74 55.3281 141.956 55.3281C141.306 55.3281 140.773 55.4865 140.356 55.8031C139.94 56.1198 139.64 56.7115 139.456 57.5781H138.081C138.081 57.0115 138.115 56.5281 138.181 56.1281C138.265 55.7281 138.44 55.3781 138.706 55.0781C139.223 54.4948 140.473 54.2031 142.456 54.2031C144.123 54.2031 145.39 54.6448 146.256 55.5281C147.14 56.3948 147.581 57.7031 147.581 59.4531V66.2031H145.456L144.581 65.0781H144.456C144.306 65.3115 144.073 65.5448 143.756 65.7781C143.19 66.2281 142.423 66.4531 141.456 66.4531ZM142.206 65.2031C142.556 65.2031 142.856 65.1365 143.106 65.0031C143.356 64.8531 143.598 64.6531 143.831 64.4031C144.048 64.1698 144.215 63.8948 144.331 63.5781V60.4531H143.956C142.773 60.4531 141.915 60.6698 141.381 61.1031C140.848 61.5198 140.581 62.1781 140.581 63.0781C140.581 63.7615 140.723 64.2865 141.006 64.6531C141.29 65.0198 141.69 65.2031 142.206 65.2031ZM155.784 66.4531C154.5 66.4531 153.409 66.1781 152.509 65.6281C151.609 65.0781 150.925 64.3448 150.459 63.4281C150.009 62.4948 149.784 61.4615 149.784 60.3281C149.784 59.1948 150.009 58.1698 150.459 57.2531C150.925 56.3198 151.609 55.5781 152.509 55.0281C153.409 54.4781 154.5 54.2031 155.784 54.2031C157.784 54.2031 159.075 54.4948 159.659 55.0781C159.942 55.3615 160.117 55.7365 160.184 56.2031C160.25 56.6698 160.284 57.4615 160.284 58.5781H159.534C159.467 57.5281 159.142 56.7281 158.559 56.1781C157.975 55.6115 157.175 55.3281 156.159 55.3281C155.242 55.3281 154.509 55.7531 153.959 56.6031C153.425 57.4365 153.159 58.6781 153.159 60.3281C153.159 63.6615 154.2 65.3281 156.284 65.3281C157.084 65.3281 157.75 65.1531 158.284 64.8031C158.834 64.4365 159.359 63.9198 159.859 63.2531L160.634 63.8281C160.15 64.5781 159.542 65.2031 158.809 65.7031C158.075 66.2031 157.067 66.4531 155.784 66.4531ZM172.161 66.4531C171.428 66.4531 170.753 66.3031 170.136 66.0031C169.536 65.6865 168.969 65.1698 168.436 64.4531L166.036 61.3031V66.2031H162.786V52.9531C162.786 52.1031 162.669 51.4781 162.436 51.0781C162.203 50.6615 161.736 50.4531 161.036 50.4531H160.786V49.7031H163.786C164.386 49.7031 164.844 49.8031 165.161 50.0031C165.478 50.2031 165.703 50.5365 165.836 51.0031C165.969 51.4531 166.036 52.1031 166.036 52.9531V60.0781L169.061 56.3781C169.628 55.6948 170.161 55.2031 170.661 54.9031C171.161 54.6031 171.828 54.4531 172.661 54.4531H173.161V55.1031C172.661 55.1031 172.211 55.2031 171.811 55.4031C171.411 55.6031 171.028 55.9198 170.661 56.3531L168.236 59.3031L171.561 63.7031C172.361 64.7865 173.136 65.4198 173.886 65.6031V66.2031C173.753 66.2698 173.503 66.3281 173.136 66.3781C172.786 66.4281 172.461 66.4531 172.161 66.4531ZM178.883 66.4531C177.533 66.4531 176.483 66.1531 175.733 65.5531C175 64.9365 174.633 64.1115 174.633 63.0781C174.633 62.2448 174.825 61.5531 175.208 61.0031C175.608 60.4531 176.3 60.0365 177.283 59.7531C178.267 59.4698 179.633 59.3281 181.383 59.3281H181.758C181.758 57.8781 181.558 56.8531 181.158 56.2531C180.758 55.6365 180.167 55.3281 179.383 55.3281C178.733 55.3281 178.2 55.4865 177.783 55.8031C177.367 56.1198 177.067 56.7115 176.883 57.5781H175.508C175.508 57.0115 175.542 56.5281 175.608 56.1281C175.692 55.7281 175.867 55.3781 176.133 55.0781C176.65 54.4948 177.9 54.2031 179.883 54.2031C181.55 54.2031 182.817 54.6448 183.683 55.5281C184.567 56.3948 185.008 57.7031 185.008 59.4531V66.2031H182.883L182.008 65.0781H181.883C181.733 65.3115 181.5 65.5448 181.183 65.7781C180.617 66.2281 179.85 66.4531 178.883 66.4531ZM179.633 65.2031C179.983 65.2031 180.283 65.1365 180.533 65.0031C180.783 64.8531 181.025 64.6531 181.258 64.4031C181.475 64.1698 181.642 63.8948 181.758 63.5781V60.4531H181.383C180.2 60.4531 179.342 60.6698 178.808 61.1031C178.275 61.5198 178.008 62.1781 178.008 63.0781C178.008 63.7615 178.15 64.2865 178.433 64.6531C178.717 65.0198 179.117 65.2031 179.633 65.2031ZM192.786 71.2031C190.886 71.2031 189.386 70.8948 188.286 70.2781C187.202 69.6781 186.661 68.6948 186.661 67.3281C186.661 66.4948 186.994 65.8031 187.661 65.2531C188.327 64.7031 189.119 64.3115 190.036 64.0781C189.286 63.8448 188.911 63.3865 188.911 62.7031C188.911 62.1365 189.244 61.7198 189.911 61.4531C189.194 61.2031 188.594 60.7698 188.111 60.1531C187.644 59.5365 187.411 58.8531 187.411 58.1031C187.411 56.7365 187.894 55.7448 188.861 55.1281C189.844 54.5115 191.152 54.2031 192.786 54.2031H198.036V54.8781L195.786 55.1781C196.486 55.4448 197.052 55.8531 197.486 56.4031C197.936 56.9531 198.161 57.5198 198.161 58.1031C198.161 59.4698 197.694 60.4531 196.761 61.0531C195.844 61.6531 194.519 61.9531 192.786 61.9531C191.919 61.9531 191.286 62.0031 190.886 62.1031C190.486 62.1865 190.286 62.3865 190.286 62.7031C190.286 62.9698 190.486 63.1448 190.886 63.2281C191.286 63.3115 191.919 63.3615 192.786 63.3781C194.586 63.4115 196.052 63.7698 197.186 64.4531C198.336 65.1198 198.911 66.0781 198.911 67.3281C198.911 68.6948 198.361 69.6781 197.261 70.2781C196.177 70.8948 194.686 71.2031 192.786 71.2031ZM192.786 60.9531C194.119 60.9531 194.786 60.0031 194.786 58.1031C194.786 57.1698 194.602 56.4531 194.236 55.9531C193.869 55.4531 193.386 55.2031 192.786 55.2031C192.169 55.2031 191.677 55.4448 191.311 55.9281C190.961 56.4115 190.786 57.1365 190.786 58.1031C190.786 60.0031 191.452 60.9531 192.786 60.9531ZM192.786 70.0781C193.652 70.0781 194.327 69.8448 194.811 69.3781C195.294 68.9281 195.536 68.2448 195.536 67.3281C195.536 66.5948 195.302 65.9865 194.836 65.5031C194.386 65.0031 193.769 64.6781 192.986 64.5281L191.811 64.4031C191.227 64.6531 190.786 65.0115 190.486 65.4781C190.186 65.9448 190.036 66.5615 190.036 67.3281C190.036 68.2448 190.277 68.9281 190.761 69.3781C191.244 69.8448 191.919 70.0781 192.786 70.0781ZM206.071 66.4531C204.921 66.4531 203.913 66.1865 203.046 65.6531C202.18 65.1198 201.505 64.3948 201.021 63.4781C200.555 62.5448 200.321 61.4948 200.321 60.3281C200.321 59.0281 200.555 57.9198 201.021 57.0031C201.505 56.0865 202.163 55.3948 202.996 54.9281C203.83 54.4448 204.771 54.2031 205.821 54.2031C206.855 54.2031 207.788 54.4115 208.621 54.8281C209.455 55.2448 210.113 55.8365 210.596 56.6031C211.08 57.3531 211.321 58.2198 211.321 59.2031C211.321 59.5198 211.305 59.8781 211.271 60.2781L211.221 60.7781H203.696C203.696 62.3615 203.938 63.5198 204.421 64.2531C204.905 64.9698 205.58 65.3281 206.446 65.3281C207.246 65.3281 207.913 65.1531 208.446 64.8031C208.996 64.4365 209.521 63.9198 210.021 63.2531L210.796 63.8281C210.313 64.5781 209.705 65.2031 208.971 65.7031C208.255 66.2031 207.288 66.4531 206.071 66.4531ZM207.946 59.6531C207.946 58.0865 207.763 56.9781 207.396 56.3281C207.03 55.6615 206.505 55.3281 205.821 55.3281C205.188 55.3281 204.671 55.6698 204.271 56.3531C203.888 57.0198 203.696 58.1198 203.696 59.6531H207.946Z" fill="#0B1623"/>
<path d="M1 113.203H368V438.203C368 455.876 353.673 470.203 336 470.203H33C15.3269 470.203 1 455.876 1 438.203V113.203Z" fill="#E6F4FF"/>
<path d="M53.992 186.523C51.6453 186.523 49.6293 186.054 47.944 185.115C46.28 184.155 45 182.811 44.104 181.083C43.208 179.334 42.76 177.275 42.76 174.907C42.76 172.539 43.208 170.491 44.104 168.763C45 167.035 46.28 165.702 47.944 164.763C49.6293 163.803 51.6453 163.323 53.992 163.323C55.5707 163.323 56.9893 163.547 58.248 163.995C59.528 164.443 60.6267 165.104 61.544 165.979L60.2 169.243C59.1973 168.432 58.2267 167.856 57.288 167.515C56.3707 167.152 55.3147 166.971 54.12 166.971C51.8373 166.971 50.088 167.664 48.872 169.051C47.6773 170.416 47.08 172.368 47.08 174.907C47.08 177.446 47.6773 179.408 48.872 180.795C50.088 182.182 51.8373 182.875 54.12 182.875C55.3147 182.875 56.3707 182.704 57.288 182.363C58.2267 182 59.1973 181.403 60.2 180.571L61.544 183.835C60.6267 184.688 59.528 185.35 58.248 185.819C56.9893 186.288 55.5707 186.523 53.992 186.523ZM65.4023 186.203V163.643H69.5303V173.051H81.0823V163.643H85.2103V186.203H81.0823V176.475H69.5303V186.203H65.4023ZM90.1835 186.203V163.643H105.064V166.875H94.3115V173.275H104.328V176.507H94.3115V186.203H90.1835ZM117.277 186.203V183.163L124.765 175.355C125.704 174.374 126.397 173.467 126.845 172.635C127.293 171.803 127.517 170.95 127.517 170.075C127.517 168.987 127.176 168.166 126.493 167.611C125.811 167.056 124.819 166.779 123.517 166.779C122.472 166.779 121.469 166.971 120.509 167.355C119.549 167.718 118.611 168.294 117.693 169.083L116.349 166.011C117.267 165.2 118.397 164.55 119.741 164.059C121.107 163.568 122.536 163.323 124.029 163.323C126.461 163.323 128.328 163.867 129.629 164.955C130.931 166.043 131.581 167.6 131.581 169.627C131.581 171.035 131.251 172.379 130.589 173.659C129.928 174.918 128.904 176.24 127.517 177.627L121.277 183.867V182.779H132.477V186.203H117.277ZM137.681 172.315L136.049 171.035C136.731 170.331 137.201 169.68 137.457 169.083C137.734 168.464 137.873 167.824 137.873 167.163L138.865 168.059H135.729V163.643H140.209V166.555C140.209 167.643 140.017 168.646 139.633 169.563C139.27 170.459 138.619 171.376 137.681 172.315ZM151.506 186.523C148.861 186.523 146.824 185.52 145.394 183.515C143.965 181.488 143.25 178.608 143.25 174.875C143.25 171.099 143.965 168.23 145.394 166.267C146.824 164.304 148.861 163.323 151.506 163.323C154.173 163.323 156.21 164.304 157.618 166.267C159.048 168.23 159.762 171.088 159.762 174.843C159.762 178.598 159.048 181.488 157.618 183.515C156.21 185.52 154.173 186.523 151.506 186.523ZM151.506 183.131C152.957 183.131 154.034 182.47 154.738 181.147C155.442 179.803 155.794 177.702 155.794 174.843C155.794 171.984 155.442 169.915 154.738 168.635C154.034 167.334 152.957 166.683 151.506 166.683C150.077 166.683 149 167.334 148.274 168.635C147.57 169.915 147.218 171.984 147.218 174.843C147.218 177.702 147.57 179.803 148.274 181.147C149 182.47 150.077 183.131 151.506 183.131ZM170.694 186.523C168.048 186.523 166.011 185.52 164.582 183.515C163.152 181.488 162.438 178.608 162.438 174.875C162.438 171.099 163.152 168.23 164.582 166.267C166.011 164.304 168.048 163.323 170.694 163.323C173.36 163.323 175.398 164.304 176.806 166.267C178.235 168.23 178.95 171.088 178.95 174.843C178.95 178.598 178.235 181.488 176.806 183.515C175.398 185.52 173.36 186.523 170.694 186.523ZM170.694 183.131C172.144 183.131 173.222 182.47 173.926 181.147C174.63 179.803 174.982 177.702 174.982 174.843C174.982 171.984 174.63 169.915 173.926 168.635C173.222 167.334 172.144 166.683 170.694 166.683C169.264 166.683 168.187 167.334 167.462 168.635C166.758 169.915 166.406 171.984 166.406 174.843C166.406 177.702 166.758 179.803 167.462 181.147C168.187 182.47 169.264 183.131 170.694 183.131ZM189.881 186.523C187.236 186.523 185.199 185.52 183.769 183.515C182.34 181.488 181.625 178.608 181.625 174.875C181.625 171.099 182.34 168.23 183.769 166.267C185.199 164.304 187.236 163.323 189.881 163.323C192.548 163.323 194.585 164.304 195.993 166.267C197.423 168.23 198.137 171.088 198.137 174.843C198.137 178.598 197.423 181.488 195.993 183.515C194.585 185.52 192.548 186.523 189.881 186.523ZM189.881 183.131C191.332 183.131 192.409 182.47 193.113 181.147C193.817 179.803 194.169 177.702 194.169 174.843C194.169 171.984 193.817 169.915 193.113 168.635C192.409 167.334 191.332 166.683 189.881 166.683C188.452 166.683 187.375 167.334 186.649 168.635C185.945 169.915 185.593 171.984 185.593 174.843C185.593 177.702 185.945 179.803 186.649 181.147C187.375 182.47 188.452 183.131 189.881 183.131Z" fill="#0B1623"/>
<path d="M45.932 237.203L41.45 224.513H43.862L47.318 234.917H46.598L50.324 224.513H52.052L55.508 234.917H54.842L58.46 224.513H60.728L56.21 237.203H54.284L50.936 227.447H51.332L47.858 237.203H45.932ZM62.4037 237.203V223.955H64.6537V229.931H64.4017C64.6777 229.283 65.1037 228.791 65.6797 228.455C66.2557 228.107 66.9157 227.933 67.6597 227.933C68.7397 227.933 69.5437 228.239 70.0717 228.851C70.5997 229.451 70.8637 230.369 70.8637 231.605V237.203H68.6137V231.713C68.6137 231.005 68.4757 230.495 68.1997 230.183C67.9357 229.859 67.5097 229.697 66.9217 229.697C66.2377 229.697 65.6857 229.913 65.2657 230.345C64.8577 230.765 64.6537 231.329 64.6537 232.037V237.203H62.4037ZM76.7594 237.383C75.9674 237.383 75.2714 237.197 74.6714 236.825C74.0714 236.441 73.6034 235.895 73.2674 235.187C72.9314 234.479 72.7634 233.633 72.7634 232.649C72.7634 231.665 72.9314 230.825 73.2674 230.129C73.6034 229.421 74.0714 228.881 74.6714 228.509C75.2714 228.125 75.9674 227.933 76.7594 227.933C77.5274 227.933 78.1994 228.125 78.7754 228.509C79.3634 228.881 79.7534 229.385 79.9454 230.021H79.7474L79.9454 228.113H82.1054C82.0694 228.485 82.0334 228.863 81.9974 229.247C81.9734 229.631 81.9614 230.009 81.9614 230.381V237.203H79.7294L79.7114 235.331H79.9274C79.7354 235.955 79.3454 236.453 78.7574 236.825C78.1694 237.197 77.5034 237.383 76.7594 237.383ZM77.3894 235.655C78.0974 235.655 78.6674 235.409 79.0994 234.917C79.5314 234.413 79.7474 233.657 79.7474 232.649C79.7474 231.641 79.5314 230.891 79.0994 230.399C78.6674 229.907 78.0974 229.661 77.3894 229.661C76.6814 229.661 76.1114 229.907 75.6794 230.399C75.2474 230.891 75.0314 231.641 75.0314 232.649C75.0314 233.657 75.2414 234.413 75.6614 234.917C76.0934 235.409 76.6694 235.655 77.3894 235.655ZM88.2995 237.383C87.2195 237.383 86.4035 237.101 85.8515 236.537C85.2995 235.973 85.0235 235.127 85.0235 233.999V229.805H83.2775V228.113H85.0235V225.791L87.2735 225.215V228.113H89.7035V229.805H87.2735V233.855C87.2735 234.479 87.3935 234.917 87.6335 235.169C87.8735 235.421 88.2035 235.547 88.6235 235.547C88.8515 235.547 89.0435 235.529 89.1995 235.493C89.3675 235.457 89.5295 235.409 89.6855 235.349V237.131C89.4815 237.215 89.2535 237.275 89.0015 237.311C88.7615 237.359 88.5275 237.383 88.2995 237.383ZM92.0958 229.391L91.1778 228.671C91.5618 228.275 91.8258 227.909 91.9698 227.573C92.1258 227.225 92.2038 226.865 92.2038 226.493L92.7618 226.997H90.9978V224.513H93.5178V226.151C93.5178 226.763 93.4098 227.327 93.1938 227.843C92.9898 228.347 92.6238 228.863 92.0958 229.391ZM98.4269 237.383C97.6469 237.383 96.9269 237.293 96.2669 237.113C95.6189 236.921 95.0729 236.657 94.6289 236.321L95.2589 234.809C95.7149 235.121 96.2189 235.361 96.7709 235.529C97.3229 235.697 97.8809 235.781 98.4449 235.781C99.0449 235.781 99.4889 235.679 99.7769 235.475C100.077 235.271 100.227 234.995 100.227 234.647C100.227 234.371 100.131 234.155 99.9389 233.999C99.7589 233.831 99.4649 233.705 99.0569 233.621L97.2569 233.279C96.4889 233.111 95.9009 232.823 95.4929 232.415C95.0969 232.007 94.8989 231.473 94.8989 230.813C94.8989 230.249 95.0489 229.751 95.3489 229.319C95.6609 228.887 96.0989 228.551 96.6629 228.311C97.2389 228.059 97.9109 227.933 98.6789 227.933C99.3509 227.933 99.9809 228.023 100.569 228.203C101.169 228.383 101.673 228.653 102.081 229.013L101.433 230.471C101.061 230.171 100.635 229.937 100.155 229.769C99.6749 229.601 99.2069 229.517 98.7509 229.517C98.1269 229.517 97.6709 229.631 97.3829 229.859C97.0949 230.075 96.9509 230.357 96.9509 230.705C96.9509 230.969 97.0349 231.191 97.2029 231.371C97.3829 231.539 97.6589 231.665 98.0309 231.749L99.8309 232.091C100.635 232.247 101.241 232.523 101.649 232.919C102.069 233.303 102.279 233.831 102.279 234.503C102.279 235.103 102.117 235.619 101.793 236.051C101.469 236.483 101.019 236.813 100.443 237.041C99.8669 237.269 99.1949 237.383 98.4269 237.383ZM109.144 237.203V228.113H111.394V237.203H109.144ZM109.018 226.403V224.207H111.52V226.403H109.018ZM113.837 237.203V230.381C113.837 230.009 113.825 229.631 113.801 229.247C113.777 228.863 113.741 228.485 113.693 228.113H115.871L116.051 229.913H115.835C116.123 229.277 116.549 228.791 117.113 228.455C117.677 228.107 118.331 227.933 119.075 227.933C120.143 227.933 120.947 228.233 121.487 228.833C122.027 229.433 122.297 230.369 122.297 231.641V237.203H120.047V231.749C120.047 231.017 119.903 230.495 119.615 230.183C119.339 229.859 118.919 229.697 118.355 229.697C117.659 229.697 117.107 229.913 116.699 230.345C116.291 230.777 116.087 231.353 116.087 232.073V237.203H113.837ZM128.859 237.383C127.923 237.383 127.101 237.191 126.393 236.807C125.697 236.423 125.157 235.877 124.773 235.169C124.389 234.449 124.197 233.597 124.197 232.613C124.197 231.629 124.389 230.789 124.773 230.093C125.169 229.397 125.715 228.863 126.411 228.491C127.107 228.119 127.923 227.933 128.859 227.933C129.459 227.933 130.041 228.029 130.605 228.221C131.181 228.401 131.649 228.665 132.009 229.013L131.325 230.579C131.001 230.279 130.635 230.057 130.227 229.913C129.831 229.757 129.441 229.679 129.057 229.679C128.253 229.679 127.623 229.931 127.167 230.435C126.723 230.939 126.501 231.671 126.501 232.631C126.501 233.591 126.723 234.329 127.167 234.845C127.623 235.361 128.253 235.619 129.057 235.619C129.429 235.619 129.813 235.547 130.209 235.403C130.617 235.259 130.989 235.037 131.325 234.737L132.009 236.285C131.637 236.633 131.163 236.903 130.587 237.095C130.023 237.287 129.447 237.383 128.859 237.383ZM133.753 237.203V223.955H136.003V237.203H133.753ZM141.723 237.383C140.607 237.383 139.773 237.077 139.221 236.465C138.669 235.853 138.393 234.917 138.393 233.657V228.113H140.643V233.639C140.643 234.311 140.781 234.809 141.057 235.133C141.333 235.445 141.753 235.601 142.317 235.601C142.953 235.601 143.469 235.385 143.865 234.953C144.273 234.521 144.477 233.951 144.477 233.243V228.113H146.727V237.203H144.531V235.349H144.783C144.519 235.997 144.117 236.501 143.577 236.861C143.049 237.209 142.431 237.383 141.723 237.383ZM152.697 237.383C151.905 237.383 151.203 237.197 150.591 236.825C149.991 236.441 149.523 235.895 149.187 235.187C148.851 234.479 148.683 233.633 148.683 232.649C148.683 231.665 148.851 230.825 149.187 230.129C149.523 229.421 149.991 228.881 150.591 228.509C151.203 228.125 151.905 227.933 152.697 227.933C153.453 227.933 154.119 228.119 154.695 228.491C155.283 228.851 155.673 229.343 155.865 229.967H155.631V223.955H157.881V237.203H155.667V235.277H155.883C155.691 235.925 155.301 236.441 154.713 236.825C154.137 237.197 153.465 237.383 152.697 237.383ZM153.327 235.655C154.035 235.655 154.605 235.409 155.037 234.917C155.469 234.413 155.685 233.657 155.685 232.649C155.685 231.641 155.469 230.891 155.037 230.399C154.605 229.907 154.035 229.661 153.327 229.661C152.619 229.661 152.043 229.907 151.599 230.399C151.167 230.891 150.951 231.641 150.951 232.649C150.951 233.657 151.167 234.413 151.599 234.917C152.043 235.409 152.619 235.655 153.327 235.655ZM164.723 237.383C163.199 237.383 162.005 236.963 161.141 236.123C160.277 235.283 159.845 234.131 159.845 232.667C159.845 231.719 160.031 230.891 160.403 230.183C160.775 229.475 161.291 228.923 161.951 228.527C162.623 228.131 163.403 227.933 164.291 227.933C165.167 227.933 165.899 228.119 166.487 228.491C167.075 228.863 167.519 229.385 167.819 230.057C168.131 230.729 168.287 231.515 168.287 232.415V233.009H161.663V231.821H166.685L166.379 232.073C166.379 231.233 166.199 230.591 165.839 230.147C165.491 229.703 164.981 229.481 164.309 229.481C163.565 229.481 162.989 229.745 162.581 230.273C162.185 230.801 161.987 231.539 161.987 232.487V232.721C161.987 233.705 162.227 234.443 162.707 234.935C163.199 235.415 163.889 235.655 164.777 235.655C165.293 235.655 165.773 235.589 166.217 235.457C166.673 235.313 167.105 235.085 167.513 234.773L168.179 236.285C167.747 236.633 167.231 236.903 166.631 237.095C166.031 237.287 165.395 237.383 164.723 237.383ZM173.721 237.383C172.929 237.383 172.227 237.197 171.615 236.825C171.015 236.441 170.547 235.895 170.211 235.187C169.875 234.479 169.707 233.633 169.707 232.649C169.707 231.665 169.875 230.825 170.211 230.129C170.547 229.421 171.015 228.881 171.615 228.509C172.227 228.125 172.929 227.933 173.721 227.933C174.477 227.933 175.143 228.119 175.719 228.491C176.307 228.851 176.697 229.343 176.889 229.967H176.655V223.955H178.905V237.203H176.691V235.277H176.907C176.715 235.925 176.325 236.441 175.737 236.825C175.161 237.197 174.489 237.383 173.721 237.383ZM174.351 235.655C175.059 235.655 175.629 235.409 176.061 234.917C176.493 234.413 176.709 233.657 176.709 232.649C176.709 231.641 176.493 230.891 176.061 230.399C175.629 229.907 175.059 229.661 174.351 229.661C173.643 229.661 173.067 229.907 172.623 230.399C172.191 230.891 171.975 231.641 171.975 232.649C171.975 233.657 172.191 234.413 172.623 234.917C173.067 235.409 173.643 235.655 174.351 235.655Z" fill="#0B1623"/>
<path d="M53.0056 265.779C52.483 265.779 51.9976 265.656 51.5496 265.411C51.1016 265.155 50.7443 264.808 50.4776 264.371C50.211 263.934 50.0776 263.448 50.0776 262.915C50.0776 262.424 50.2003 261.96 50.4456 261.523C50.7016 261.086 51.0483 260.734 51.4856 260.467C51.9336 260.19 52.4403 260.051 53.0056 260.051C53.5283 260.051 54.0083 260.179 54.4456 260.435C54.883 260.68 55.235 261.016 55.5016 261.443C55.779 261.87 55.9176 262.36 55.9176 262.915C55.9176 263.438 55.7843 263.918 55.5176 264.355C55.2616 264.792 54.9096 265.139 54.4616 265.395C54.0243 265.651 53.539 265.779 53.0056 265.779ZM66.984 267.203V265.939H69.624V257.187H70.376L67.224 259.139V257.683L70.04 255.923H71.112V265.939H73.592V267.203H66.984ZM75.9538 267.203V266.099L79.8898 261.971C80.4018 261.448 80.7804 260.947 81.0258 260.467C81.2818 259.987 81.4098 259.491 81.4098 258.979C81.4098 258.35 81.2124 257.875 80.8178 257.555C80.4338 257.224 79.8684 257.059 79.1218 257.059C78.5458 257.059 78.0018 257.166 77.4898 257.379C76.9884 257.582 76.5084 257.896 76.0498 258.323L75.5218 257.187C75.9591 256.76 76.5084 256.419 77.1698 256.163C77.8418 255.907 78.5458 255.779 79.2818 255.779C80.4338 255.779 81.3244 256.046 81.9538 256.579C82.5831 257.102 82.8978 257.854 82.8978 258.835C82.8978 259.55 82.7218 260.232 82.3698 260.883C82.0284 261.523 81.5218 262.184 80.8498 262.867L77.4098 266.355V265.939H83.3618V267.203H75.9538ZM89.6223 267.203V255.427H91.0783V267.203H89.6223ZM97.1769 267.347C95.8969 267.347 94.8835 266.979 94.1369 266.243C93.4009 265.507 93.0329 264.494 93.0329 263.203C93.0329 262.35 93.1929 261.614 93.5129 260.995C93.8435 260.366 94.2969 259.88 94.8729 259.539C95.4489 259.187 96.1209 259.011 96.8889 259.011C97.6249 259.011 98.2489 259.171 98.7609 259.491C99.2729 259.8 99.6622 260.243 99.9289 260.819C100.196 261.395 100.329 262.078 100.329 262.867V263.347H94.1689V262.483H99.3369L99.0649 262.691C99.0649 261.859 98.8782 261.214 98.5049 260.755C98.1422 260.296 97.6035 260.067 96.8889 260.067C96.1102 260.067 95.5075 260.339 95.0809 260.883C94.6542 261.416 94.4409 262.147 94.4409 263.075V263.219C94.4409 264.2 94.6809 264.942 95.1609 265.443C95.6515 265.944 96.3289 266.195 97.1929 266.195C97.6729 266.195 98.1209 266.126 98.5369 265.987C98.9529 265.848 99.3529 265.619 99.7369 265.299L100.217 266.307C99.8542 266.638 99.4009 266.894 98.8569 267.075C98.3235 267.256 97.7635 267.347 97.1769 267.347ZM104.952 267.347C104.301 267.347 103.693 267.262 103.128 267.091C102.573 266.92 102.114 266.675 101.752 266.355L102.216 265.347C102.61 265.646 103.042 265.875 103.512 266.035C103.992 266.184 104.482 266.259 104.984 266.259C105.592 266.259 106.05 266.147 106.36 265.923C106.68 265.699 106.84 265.4 106.84 265.027C106.84 264.728 106.738 264.488 106.536 264.307C106.333 264.126 106.013 263.992 105.576 263.907L104.056 263.603C103.373 263.443 102.856 263.187 102.504 262.835C102.162 262.472 101.992 262.008 101.992 261.443C101.992 260.974 102.12 260.558 102.376 260.195C102.632 259.822 102.994 259.534 103.464 259.331C103.944 259.118 104.504 259.011 105.144 259.011C105.73 259.011 106.274 259.096 106.776 259.267C107.288 259.438 107.709 259.688 108.04 260.019L107.56 260.995C107.229 260.707 106.856 260.488 106.44 260.339C106.034 260.179 105.618 260.099 105.192 260.099C104.573 260.099 104.114 260.222 103.816 260.467C103.517 260.702 103.368 261.011 103.368 261.395C103.368 261.683 103.458 261.923 103.64 262.115C103.821 262.296 104.114 262.435 104.52 262.531L106.04 262.835C106.754 262.984 107.293 263.23 107.656 263.571C108.018 263.912 108.2 264.366 108.2 264.931C108.2 265.432 108.061 265.864 107.784 266.227C107.517 266.59 107.138 266.867 106.648 267.059C106.168 267.251 105.602 267.347 104.952 267.347ZM112.905 267.347C112.254 267.347 111.646 267.262 111.081 267.091C110.526 266.92 110.067 266.675 109.705 266.355L110.169 265.347C110.563 265.646 110.995 265.875 111.465 266.035C111.945 266.184 112.435 266.259 112.937 266.259C113.545 266.259 114.003 266.147 114.313 265.923C114.633 265.699 114.793 265.4 114.793 265.027C114.793 264.728 114.691 264.488 114.489 264.307C114.286 264.126 113.966 263.992 113.529 263.907L112.009 263.603C111.326 263.443 110.809 263.187 110.457 262.835C110.115 262.472 109.945 262.008 109.945 261.443C109.945 260.974 110.073 260.558 110.329 260.195C110.585 259.822 110.947 259.534 111.417 259.331C111.897 259.118 112.457 259.011 113.097 259.011C113.683 259.011 114.227 259.096 114.729 259.267C115.241 259.438 115.662 259.688 115.993 260.019L115.513 260.995C115.182 260.707 114.809 260.488 114.393 260.339C113.987 260.179 113.571 260.099 113.145 260.099C112.526 260.099 112.067 260.222 111.769 260.467C111.47 260.702 111.321 261.011 111.321 261.395C111.321 261.683 111.411 261.923 111.593 262.115C111.774 262.296 112.067 262.435 112.473 262.531L113.993 262.835C114.707 262.984 115.246 263.23 115.609 263.571C115.971 263.912 116.153 264.366 116.153 264.931C116.153 265.432 116.014 265.864 115.737 266.227C115.47 266.59 115.091 266.867 114.601 267.059C114.121 267.251 113.555 267.347 112.905 267.347ZM121.53 267.347C120.741 267.347 120.058 267.182 119.482 266.851C118.906 266.51 118.458 266.03 118.138 265.411C117.818 264.782 117.658 264.035 117.658 263.171C117.658 262.318 117.818 261.582 118.138 260.963C118.458 260.334 118.906 259.854 119.482 259.523C120.058 259.182 120.741 259.011 121.53 259.011C122.319 259.011 123.002 259.182 123.578 259.523C124.165 259.854 124.613 260.334 124.922 260.963C125.242 261.582 125.402 262.318 125.402 263.171C125.402 264.035 125.242 264.782 124.922 265.411C124.613 266.03 124.165 266.51 123.578 266.851C123.002 267.182 122.319 267.347 121.53 267.347ZM121.53 266.195C122.255 266.195 122.837 265.939 123.274 265.427C123.711 264.915 123.93 264.163 123.93 263.171C123.93 262.179 123.711 261.432 123.274 260.931C122.837 260.43 122.255 260.179 121.53 260.179C120.794 260.179 120.207 260.43 119.77 260.931C119.343 261.432 119.13 262.179 119.13 263.171C119.13 264.163 119.343 264.915 119.77 265.427C120.207 265.939 120.794 266.195 121.53 266.195ZM127.357 267.203V261.059C127.357 260.75 127.346 260.435 127.325 260.115C127.303 259.795 127.271 259.475 127.229 259.155H128.637L128.797 260.883H128.605C128.85 260.275 129.229 259.811 129.741 259.491C130.253 259.171 130.85 259.011 131.533 259.011C132.482 259.011 133.197 259.272 133.677 259.795C134.157 260.307 134.397 261.107 134.397 262.195V267.203H132.941V262.275C132.941 261.539 132.797 261.011 132.509 260.691C132.221 260.36 131.773 260.195 131.165 260.195C130.439 260.195 129.863 260.414 129.437 260.851C129.021 261.288 128.813 261.88 128.813 262.627V267.203H127.357ZM139.499 267.347C138.848 267.347 138.24 267.262 137.674 267.091C137.12 266.92 136.661 266.675 136.299 266.355L136.763 265.347C137.157 265.646 137.589 265.875 138.059 266.035C138.539 266.184 139.029 266.259 139.531 266.259C140.139 266.259 140.597 266.147 140.907 265.923C141.227 265.699 141.387 265.4 141.387 265.027C141.387 264.728 141.285 264.488 141.083 264.307C140.88 264.126 140.56 263.992 140.123 263.907L138.603 263.603C137.92 263.443 137.403 263.187 137.051 262.835C136.709 262.472 136.539 262.008 136.539 261.443C136.539 260.974 136.667 260.558 136.923 260.195C137.179 259.822 137.541 259.534 138.011 259.331C138.491 259.118 139.051 259.011 139.691 259.011C140.277 259.011 140.821 259.096 141.323 259.267C141.835 259.438 142.256 259.688 142.587 260.019L142.107 260.995C141.776 260.707 141.403 260.488 140.987 260.339C140.581 260.179 140.165 260.099 139.739 260.099C139.12 260.099 138.661 260.222 138.363 260.467C138.064 260.702 137.914 261.011 137.914 261.395C137.914 261.683 138.005 261.923 138.187 262.115C138.368 262.296 138.661 262.435 139.067 262.531L140.587 262.835C141.301 262.984 141.84 263.23 142.203 263.571C142.565 263.912 142.747 264.366 142.747 264.931C142.747 265.432 142.608 265.864 142.331 266.227C142.064 266.59 141.685 266.867 141.195 267.059C140.715 267.251 140.149 267.347 139.499 267.347ZM53.0056 286.779C52.483 286.779 51.9976 286.656 51.5496 286.411C51.1016 286.155 50.7443 285.808 50.4776 285.371C50.211 284.934 50.0776 284.448 50.0776 283.915C50.0776 283.424 50.2003 282.96 50.4456 282.523C50.7016 282.086 51.0483 281.734 51.4856 281.467C51.9336 281.19 52.4403 281.051 53.0056 281.051C53.5283 281.051 54.0083 281.179 54.4456 281.435C54.883 281.68 55.235 282.016 55.5016 282.443C55.779 282.87 55.9176 283.36 55.9176 283.915C55.9176 284.438 55.7843 284.918 55.5176 285.355C55.2616 285.792 54.9096 286.139 54.4616 286.395C54.0243 286.651 53.539 286.779 53.0056 286.779ZM66.984 288.203V286.939H69.624V278.187H70.376L67.224 280.139V278.683L70.04 276.923H71.112V286.939H73.592V288.203H66.984ZM82.8925 288.203V278.187H78.9885V276.923H88.3165V278.187H84.3965V288.203H82.8925ZM88.4969 288.203V282.123C88.4969 281.803 88.4862 281.478 88.4649 281.147C88.4542 280.806 88.4275 280.475 88.3849 280.155H89.7929L89.9689 282.171L89.7289 282.187C89.8355 281.696 90.0169 281.291 90.2729 280.971C90.5395 280.64 90.8542 280.4 91.2169 280.251C91.5902 280.091 91.9742 280.011 92.3689 280.011C92.5395 280.011 92.6835 280.016 92.8009 280.027C92.9182 280.038 93.0355 280.064 93.1529 280.107L93.1209 281.403C92.9609 281.339 92.8115 281.302 92.6729 281.291C92.5449 281.27 92.3849 281.259 92.1929 281.259C91.7235 281.259 91.3182 281.366 90.9769 281.579C90.6462 281.792 90.3902 282.075 90.2089 282.427C90.0382 282.779 89.9529 283.158 89.9529 283.563V288.203H88.4969ZM94.4348 288.203V280.155H95.8908V288.203H94.4348ZM94.3068 278.395V276.827H96.0348V278.395H94.3068ZM98.3254 291.659V282.059C98.3254 281.75 98.3147 281.435 98.2934 281.115C98.272 280.795 98.24 280.475 98.1974 280.155H99.6054L99.7814 282.011H99.6054C99.7654 281.392 100.107 280.907 100.629 280.555C101.152 280.192 101.776 280.011 102.501 280.011C103.216 280.011 103.84 280.176 104.373 280.507C104.907 280.838 105.317 281.318 105.605 281.947C105.904 282.566 106.053 283.307 106.053 284.171C106.053 285.035 105.904 285.782 105.605 286.411C105.317 287.04 104.907 287.52 104.373 287.851C103.84 288.182 103.216 288.347 102.501 288.347C101.787 288.347 101.168 288.171 100.645 287.819C100.133 287.456 99.7867 286.971 99.6054 286.363H99.7814V291.659H98.3254ZM102.165 287.195C102.901 287.195 103.488 286.939 103.925 286.427C104.363 285.915 104.581 285.163 104.581 284.171C104.581 283.179 104.363 282.432 103.925 281.931C103.488 281.43 102.901 281.179 102.165 281.179C101.429 281.179 100.843 281.43 100.405 281.931C99.9787 282.432 99.7654 283.179 99.7654 284.171C99.7654 285.163 99.9787 285.915 100.405 286.427C100.843 286.939 101.429 287.195 102.165 287.195ZM53.0056 307.779C52.483 307.779 51.9976 307.656 51.5496 307.411C51.1016 307.155 50.7443 306.808 50.4776 306.371C50.211 305.934 50.0776 305.448 50.0776 304.915C50.0776 304.424 50.2003 303.96 50.4456 303.523C50.7016 303.086 51.0483 302.734 51.4856 302.467C51.9336 302.19 52.4403 302.051 53.0056 302.051C53.5283 302.051 54.0083 302.179 54.4456 302.435C54.883 302.68 55.235 303.016 55.5016 303.443C55.779 303.87 55.9176 304.36 55.9176 304.915C55.9176 305.438 55.7843 305.918 55.5176 306.355C55.2616 306.792 54.9096 307.139 54.4616 307.395C54.0243 307.651 53.539 307.779 53.0056 307.779ZM66.376 309.203V297.923H67.864V307.923H73.48V309.203H66.376ZM77.705 309.347C76.7343 309.347 76.0037 309.086 75.513 308.563C75.033 308.04 74.793 307.235 74.793 306.147V301.155H76.249V306.115C76.249 306.819 76.393 307.336 76.681 307.667C76.969 307.998 77.417 308.163 78.025 308.163C78.6863 308.163 79.2197 307.944 79.625 307.507C80.041 307.059 80.249 306.467 80.249 305.731V301.155H81.705V309.203H80.297V307.427H80.505C80.281 308.035 79.9237 308.51 79.433 308.851C78.9423 309.182 78.3663 309.347 77.705 309.347ZM84.1535 309.203V303.059C84.1535 302.75 84.1428 302.435 84.1215 302.115C84.1002 301.795 84.0682 301.475 84.0255 301.155H85.4335L85.5935 302.883H85.4015C85.6468 302.275 86.0255 301.811 86.5375 301.491C87.0495 301.171 87.6468 301.011 88.3295 301.011C89.2788 301.011 89.9935 301.272 90.4735 301.795C90.9535 302.307 91.1935 303.107 91.1935 304.195V309.203H89.7375V304.275C89.7375 303.539 89.5935 303.011 89.3055 302.691C89.0175 302.36 88.5695 302.195 87.9615 302.195C87.2362 302.195 86.6602 302.414 86.2335 302.851C85.8175 303.288 85.6095 303.88 85.6095 304.627V309.203H84.1535ZM97.0314 309.347C96.2314 309.347 95.538 309.182 94.9514 308.851C94.3647 308.51 93.906 308.024 93.5754 307.395C93.2554 306.755 93.0954 305.998 93.0954 305.123C93.0954 304.259 93.2607 303.523 93.5914 302.915C93.922 302.296 94.3807 301.827 94.9674 301.507C95.554 301.176 96.242 301.011 97.0314 301.011C97.554 301.011 98.0607 301.102 98.5514 301.283C99.042 301.454 99.442 301.704 99.7514 302.035L99.2554 303.059C98.946 302.76 98.6047 302.542 98.2314 302.403C97.858 302.254 97.49 302.179 97.1274 302.179C96.338 302.179 95.7194 302.435 95.2714 302.947C94.8234 303.448 94.5994 304.179 94.5994 305.139C94.5994 306.11 94.8234 306.856 95.2714 307.379C95.7194 307.902 96.338 308.163 97.1274 308.163C97.4794 308.163 97.842 308.094 98.2154 307.955C98.5887 307.816 98.9354 307.598 99.2554 307.299L99.7514 308.307C99.4314 308.648 99.0207 308.91 98.5194 309.091C98.0287 309.262 97.5327 309.347 97.0314 309.347ZM101.529 309.203V297.427H102.985V302.899H102.777C103.011 302.28 103.39 301.811 103.913 301.491C104.435 301.171 105.038 301.011 105.721 301.011C106.691 301.011 107.406 301.272 107.865 301.795C108.334 302.318 108.569 303.107 108.569 304.163V309.203H107.113V304.243C107.113 303.528 106.974 303.011 106.697 302.691C106.419 302.36 105.966 302.195 105.337 302.195C104.633 302.195 104.062 302.414 103.625 302.851C103.198 303.288 102.985 303.87 102.985 304.595V309.203H101.529ZM124.401 309.347C123.91 309.134 123.452 308.872 123.025 308.563C122.598 308.243 122.225 307.928 121.905 307.619H122.257C121.788 308.163 121.228 308.59 120.577 308.899C119.926 309.198 119.222 309.347 118.465 309.347C117.686 309.347 117.014 309.23 116.449 308.995C115.884 308.75 115.452 308.414 115.153 307.987C114.854 307.55 114.705 307.038 114.705 306.451C114.705 305.726 114.918 305.107 115.345 304.595C115.772 304.072 116.374 303.566 117.153 303.075L117.681 302.755L117.473 303.011C116.982 302.499 116.62 302.035 116.385 301.619C116.161 301.192 116.049 300.75 116.049 300.291C116.049 299.79 116.166 299.352 116.401 298.979C116.646 298.606 116.988 298.312 117.425 298.099C117.862 297.886 118.374 297.779 118.961 297.779C119.718 297.779 120.337 297.987 120.817 298.403C121.308 298.819 121.553 299.384 121.553 300.099C121.553 300.494 121.473 300.862 121.313 301.203C121.164 301.534 120.908 301.864 120.545 302.195C120.193 302.515 119.713 302.856 119.105 303.219L119.137 302.899L122.177 306.163H121.857C122.134 305.715 122.348 305.182 122.497 304.563C122.657 303.934 122.748 303.267 122.769 302.563H124.033C124.001 303.448 123.873 304.275 123.649 305.043C123.425 305.811 123.116 306.483 122.721 307.059L122.705 306.659C122.982 306.958 123.313 307.256 123.697 307.555C124.092 307.843 124.513 308.088 124.961 308.291L124.401 309.347ZM118.529 308.179C119.137 308.179 119.681 308.056 120.161 307.811C120.652 307.566 121.073 307.208 121.425 306.739L121.393 307.139L117.937 303.507H118.513L118.033 303.811C117.606 304.088 117.254 304.355 116.977 304.611C116.7 304.867 116.492 305.134 116.353 305.411C116.225 305.688 116.161 306.008 116.161 306.371C116.161 306.936 116.358 307.379 116.753 307.699C117.158 308.019 117.75 308.179 118.529 308.179ZM118.961 298.835C118.492 298.835 118.113 298.968 117.825 299.235C117.548 299.502 117.409 299.854 117.409 300.291C117.409 300.515 117.446 300.728 117.521 300.931C117.606 301.123 117.74 301.336 117.921 301.571C118.113 301.795 118.364 302.083 118.673 302.435L118.289 302.483C119.014 302.046 119.537 301.656 119.857 301.315C120.188 300.974 120.353 300.595 120.353 300.179C120.353 299.763 120.225 299.438 119.969 299.203C119.724 298.958 119.388 298.835 118.961 298.835ZM130.329 309.203V297.923H134.153C135.412 297.923 136.473 298.142 137.337 298.579C138.212 299.016 138.873 299.656 139.321 300.499C139.769 301.331 139.993 302.35 139.993 303.555C139.993 304.76 139.769 305.784 139.321 306.627C138.873 307.47 138.212 308.11 137.337 308.547C136.473 308.984 135.412 309.203 134.153 309.203H130.329ZM131.817 307.939H134.041C135.545 307.939 136.66 307.576 137.385 306.851C138.11 306.126 138.473 305.027 138.473 303.555C138.473 302.083 138.11 300.99 137.385 300.275C136.66 299.55 135.545 299.187 134.041 299.187H131.817V307.939ZM142.169 309.203V301.155H143.625V309.203H142.169ZM142.041 299.395V297.827H143.769V299.395H142.041ZM146.06 309.203V303.059C146.06 302.75 146.049 302.435 146.028 302.115C146.006 301.795 145.974 301.475 145.932 301.155H147.34L147.5 302.883H147.308C147.553 302.275 147.932 301.811 148.444 301.491C148.956 301.171 149.553 301.011 150.236 301.011C151.185 301.011 151.9 301.272 152.38 301.795C152.86 302.307 153.1 303.107 153.1 304.195V309.203H151.644V304.275C151.644 303.539 151.5 303.011 151.212 302.691C150.924 302.36 150.476 302.195 149.868 302.195C149.142 302.195 148.566 302.414 148.14 302.851C147.724 303.288 147.516 303.88 147.516 304.627V309.203H146.06ZM155.482 309.203V303.059C155.482 302.75 155.471 302.435 155.45 302.115C155.428 301.795 155.396 301.475 155.354 301.155H156.762L156.922 302.883H156.73C156.975 302.275 157.354 301.811 157.866 301.491C158.378 301.171 158.975 301.011 159.658 301.011C160.607 301.011 161.322 301.272 161.802 301.795C162.282 302.307 162.522 303.107 162.522 304.195V309.203H161.066V304.275C161.066 303.539 160.922 303.011 160.634 302.691C160.346 302.36 159.898 302.195 159.29 302.195C158.564 302.195 157.988 302.414 157.562 302.851C157.146 303.288 156.938 303.88 156.938 304.627V309.203H155.482ZM168.568 309.347C167.288 309.347 166.274 308.979 165.528 308.243C164.792 307.507 164.424 306.494 164.424 305.203C164.424 304.35 164.584 303.614 164.904 302.995C165.234 302.366 165.688 301.88 166.264 301.539C166.84 301.187 167.512 301.011 168.28 301.011C169.016 301.011 169.64 301.171 170.152 301.491C170.664 301.8 171.053 302.243 171.32 302.819C171.586 303.395 171.72 304.078 171.72 304.867V305.347H165.56V304.483H170.728L170.456 304.691C170.456 303.859 170.269 303.214 169.896 302.755C169.533 302.296 168.994 302.067 168.28 302.067C167.501 302.067 166.898 302.339 166.472 302.883C166.045 303.416 165.832 304.147 165.832 305.075V305.219C165.832 306.2 166.072 306.942 166.552 307.443C167.042 307.944 167.72 308.195 168.584 308.195C169.064 308.195 169.512 308.126 169.928 307.987C170.344 307.848 170.744 307.619 171.128 307.299L171.608 308.307C171.245 308.638 170.792 308.894 170.248 309.075C169.714 309.256 169.154 309.347 168.568 309.347ZM173.606 309.203V303.123C173.606 302.803 173.596 302.478 173.574 302.147C173.564 301.806 173.537 301.475 173.494 301.155H174.902L175.078 303.171L174.838 303.187C174.945 302.696 175.126 302.291 175.382 301.971C175.649 301.64 175.964 301.4 176.326 301.251C176.7 301.091 177.084 301.011 177.478 301.011C177.649 301.011 177.793 301.016 177.91 301.027C178.028 301.038 178.145 301.064 178.262 301.107L178.23 302.403C178.07 302.339 177.921 302.302 177.782 302.291C177.654 302.27 177.494 302.259 177.302 302.259C176.833 302.259 176.428 302.366 176.086 302.579C175.756 302.792 175.5 303.075 175.318 303.427C175.148 303.779 175.062 304.158 175.062 304.563V309.203H173.606ZM184.211 309.203V302.275H182.643V301.155H184.611L184.211 301.523V300.227C184.211 299.288 184.446 298.579 184.915 298.099C185.384 297.608 186.067 297.363 186.963 297.363C187.176 297.363 187.4 297.379 187.635 297.411C187.88 297.443 188.083 297.496 188.243 297.571V298.755C188.115 298.702 187.955 298.659 187.763 298.627C187.571 298.595 187.384 298.579 187.203 298.579C186.883 298.579 186.606 298.643 186.371 298.771C186.136 298.899 185.96 299.091 185.843 299.347C185.726 299.592 185.667 299.918 185.667 300.323V301.459L185.443 301.155H187.891V302.275H185.667V309.203H184.211ZM192.452 309.347C191.662 309.347 190.98 309.182 190.404 308.851C189.828 308.51 189.38 308.03 189.06 307.411C188.74 306.782 188.58 306.035 188.58 305.171C188.58 304.318 188.74 303.582 189.06 302.963C189.38 302.334 189.828 301.854 190.404 301.523C190.98 301.182 191.662 301.011 192.452 301.011C193.241 301.011 193.924 301.182 194.5 301.523C195.086 301.854 195.534 302.334 195.844 302.963C196.164 303.582 196.324 304.318 196.324 305.171C196.324 306.035 196.164 306.782 195.844 307.411C195.534 308.03 195.086 308.51 194.5 308.851C193.924 309.182 193.241 309.347 192.452 309.347ZM192.452 308.195C193.177 308.195 193.758 307.939 194.196 307.427C194.633 306.915 194.852 306.163 194.852 305.171C194.852 304.179 194.633 303.432 194.196 302.931C193.758 302.43 193.177 302.179 192.452 302.179C191.716 302.179 191.129 302.43 190.692 302.931C190.265 303.432 190.052 304.179 190.052 305.171C190.052 306.163 190.265 306.915 190.692 307.427C191.129 307.939 191.716 308.195 192.452 308.195ZM198.263 309.203V303.123C198.263 302.803 198.252 302.478 198.231 302.147C198.22 301.806 198.193 301.475 198.151 301.155H199.559L199.735 303.171L199.495 303.187C199.601 302.696 199.783 302.291 200.039 301.971C200.305 301.64 200.62 301.4 200.983 301.251C201.356 301.091 201.74 301.011 202.135 301.011C202.305 301.011 202.449 301.016 202.567 301.027C202.684 301.038 202.801 301.064 202.919 301.107L202.887 302.403C202.727 302.339 202.577 302.302 202.439 302.291C202.311 302.27 202.151 302.259 201.959 302.259C201.489 302.259 201.084 302.366 200.743 302.579C200.412 302.792 200.156 303.075 199.975 303.427C199.804 303.779 199.719 304.158 199.719 304.563V309.203H198.263ZM208.899 309.203L214.451 298.595V299.203H208.211V297.923H215.811V299.027L210.547 309.203H208.899ZM222.392 309.203V297.923H226.216C227.474 297.923 228.536 298.142 229.4 298.579C230.274 299.016 230.936 299.656 231.384 300.499C231.832 301.331 232.056 302.35 232.056 303.555C232.056 304.76 231.832 305.784 231.384 306.627C230.936 307.47 230.274 308.11 229.4 308.547C228.536 308.984 227.474 309.203 226.216 309.203H222.392ZM223.88 307.939H226.104C227.608 307.939 228.722 307.576 229.448 306.851C230.173 306.126 230.536 305.027 230.536 303.555C230.536 302.083 230.173 300.99 229.448 300.275C228.722 299.55 227.608 299.187 226.104 299.187H223.88V307.939ZM237.304 309.347C236.6 309.347 235.981 309.182 235.448 308.851C234.914 308.52 234.498 308.04 234.2 307.411C233.901 306.782 233.752 306.035 233.752 305.171C233.752 304.307 233.901 303.566 234.2 302.947C234.498 302.318 234.914 301.838 235.448 301.507C235.981 301.176 236.6 301.011 237.304 301.011C238.018 301.011 238.637 301.192 239.16 301.555C239.693 301.907 240.045 302.392 240.216 303.011H240.024L240.2 301.155H241.608C241.576 301.475 241.544 301.795 241.512 302.115C241.49 302.435 241.48 302.75 241.48 303.059V309.203H240.024V307.363H240.2C240.029 307.971 239.677 308.456 239.144 308.819C238.621 309.171 238.008 309.347 237.304 309.347ZM237.64 308.195C238.365 308.195 238.946 307.939 239.384 307.427C239.821 306.915 240.04 306.163 240.04 305.171C240.04 304.179 239.821 303.432 239.384 302.931C238.946 302.43 238.365 302.179 237.64 302.179C236.914 302.179 236.328 302.43 235.88 302.931C235.442 303.432 235.224 304.179 235.224 305.171C235.224 306.163 235.442 306.915 235.88 307.427C236.317 307.939 236.904 308.195 237.64 308.195ZM243.569 312.835L243.233 311.651C243.734 311.534 244.15 311.395 244.481 311.235C244.812 311.086 245.089 310.888 245.313 310.643C245.537 310.398 245.734 310.088 245.905 309.715L246.305 308.755L246.273 309.363L242.769 301.155H244.337L247.137 308.051H246.721L249.521 301.155H251.025L247.329 309.827C247.105 310.35 246.86 310.787 246.593 311.139C246.337 311.491 246.054 311.779 245.745 312.003C245.446 312.227 245.116 312.403 244.753 312.531C244.39 312.659 243.996 312.76 243.569 312.835ZM254.952 309.347C254.301 309.347 253.693 309.262 253.128 309.091C252.573 308.92 252.114 308.675 251.752 308.355L252.216 307.347C252.61 307.646 253.042 307.875 253.512 308.035C253.992 308.184 254.482 308.259 254.984 308.259C255.592 308.259 256.05 308.147 256.36 307.923C256.68 307.699 256.84 307.4 256.84 307.027C256.84 306.728 256.738 306.488 256.536 306.307C256.333 306.126 256.013 305.992 255.576 305.907L254.056 305.603C253.373 305.443 252.856 305.187 252.504 304.835C252.162 304.472 251.992 304.008 251.992 303.443C251.992 302.974 252.12 302.558 252.376 302.195C252.632 301.822 252.994 301.534 253.464 301.331C253.944 301.118 254.504 301.011 255.144 301.011C255.73 301.011 256.274 301.096 256.776 301.267C257.288 301.438 257.709 301.688 258.04 302.019L257.56 302.995C257.229 302.707 256.856 302.488 256.44 302.339C256.034 302.179 255.618 302.099 255.192 302.099C254.573 302.099 254.114 302.222 253.816 302.467C253.517 302.702 253.368 303.011 253.368 303.395C253.368 303.683 253.458 303.923 253.64 304.115C253.821 304.296 254.114 304.435 254.52 304.531L256.04 304.835C256.754 304.984 257.293 305.23 257.656 305.571C258.018 305.912 258.2 306.366 258.2 306.931C258.2 307.432 258.061 307.864 257.784 308.227C257.517 308.59 257.138 308.867 256.648 309.059C256.168 309.251 255.602 309.347 254.952 309.347ZM53.0056 328.779C52.483 328.779 51.9976 328.656 51.5496 328.411C51.1016 328.155 50.7443 327.808 50.4776 327.371C50.211 326.934 50.0776 326.448 50.0776 325.915C50.0776 325.424 50.2003 324.96 50.4456 324.523C50.7016 324.086 51.0483 323.734 51.4856 323.467C51.9336 323.19 52.4403 323.051 53.0056 323.051C53.5283 323.051 54.0083 323.179 54.4456 323.435C54.883 323.68 55.235 324.016 55.5016 324.443C55.779 324.87 55.9176 325.36 55.9176 325.915C55.9176 326.438 55.7843 326.918 55.5176 327.355C55.2616 327.792 54.9096 328.139 54.4616 328.395C54.0243 328.651 53.539 328.779 53.0056 328.779ZM71.352 330.347C70.2213 330.347 69.2507 330.112 68.44 329.643C67.64 329.174 67.0267 328.507 66.6 327.643C66.1733 326.768 65.96 325.739 65.96 324.555C65.96 323.371 66.1733 322.347 66.6 321.483C67.0267 320.619 67.64 319.952 68.44 319.483C69.2507 319.014 70.2213 318.779 71.352 318.779C72.1627 318.779 72.8827 318.902 73.512 319.147C74.1413 319.382 74.6907 319.728 75.16 320.187L74.616 321.387C74.104 320.939 73.5973 320.619 73.096 320.427C72.6053 320.224 72.0347 320.123 71.384 320.123C70.136 320.123 69.1813 320.507 68.52 321.275C67.8587 322.043 67.528 323.136 67.528 324.555C67.528 325.974 67.8587 327.072 68.52 327.851C69.1813 328.619 70.136 329.003 71.384 329.003C72.0347 329.003 72.6053 328.907 73.096 328.715C73.5973 328.512 74.104 328.187 74.616 327.739L75.16 328.923C74.6907 329.382 74.136 329.734 73.496 329.979C72.8667 330.224 72.152 330.347 71.352 330.347ZM79.9755 330.347C79.2715 330.347 78.6528 330.182 78.1195 329.851C77.5862 329.52 77.1702 329.04 76.8715 328.411C76.5728 327.782 76.4235 327.035 76.4235 326.171C76.4235 325.307 76.5728 324.566 76.8715 323.947C77.1702 323.318 77.5862 322.838 78.1195 322.507C78.6528 322.176 79.2715 322.011 79.9755 322.011C80.6902 322.011 81.3088 322.192 81.8315 322.555C82.3648 322.907 82.7168 323.392 82.8875 324.011H82.6955L82.8715 322.155H84.2795C84.2475 322.475 84.2155 322.795 84.1835 323.115C84.1622 323.435 84.1515 323.75 84.1515 324.059V330.203H82.6955V328.363H82.8715C82.7008 328.971 82.3488 329.456 81.8155 329.819C81.2928 330.171 80.6795 330.347 79.9755 330.347ZM80.3115 329.195C81.0368 329.195 81.6182 328.939 82.0555 328.427C82.4928 327.915 82.7115 327.163 82.7115 326.171C82.7115 325.179 82.4928 324.432 82.0555 323.931C81.6182 323.43 81.0368 323.179 80.3115 323.179C79.5862 323.179 78.9995 323.43 78.5515 323.931C78.1142 324.432 77.8955 325.179 77.8955 326.171C77.8955 327.163 78.1142 327.915 78.5515 328.427C78.9888 328.939 79.5755 329.195 80.3115 329.195ZM86.591 330.203V324.059C86.591 323.75 86.5803 323.435 86.559 323.115C86.5377 322.795 86.5057 322.475 86.463 322.155H87.871L88.031 323.883H87.839C88.0523 323.286 88.3937 322.827 88.863 322.507C89.3323 322.176 89.8923 322.011 90.543 322.011C91.2043 322.011 91.7483 322.171 92.175 322.491C92.6017 322.8 92.8897 323.291 93.039 323.963H92.799C93.0017 323.366 93.359 322.891 93.871 322.539C94.383 322.187 94.9803 322.011 95.663 322.011C96.5483 322.011 97.215 322.272 97.663 322.795C98.111 323.307 98.335 324.107 98.335 325.195V330.203H96.879V325.275C96.879 324.539 96.751 324.011 96.495 323.691C96.239 323.36 95.8337 323.195 95.279 323.195C94.6283 323.195 94.1163 323.419 93.743 323.867C93.3697 324.304 93.183 324.902 93.183 325.659V330.203H91.727V325.275C91.727 324.539 91.599 324.011 91.343 323.691C91.0977 323.36 90.6923 323.195 90.127 323.195C89.4763 323.195 88.9643 323.419 88.591 323.867C88.2283 324.304 88.047 324.902 88.047 325.659V330.203H86.591ZM100.716 333.659V324.059C100.716 323.75 100.705 323.435 100.684 323.115C100.663 322.795 100.631 322.475 100.588 322.155H101.996L102.172 324.011H101.996C102.156 323.392 102.497 322.907 103.02 322.555C103.543 322.192 104.167 322.011 104.892 322.011C105.607 322.011 106.231 322.176 106.764 322.507C107.297 322.838 107.708 323.318 107.996 323.947C108.295 324.566 108.444 325.307 108.444 326.171C108.444 327.035 108.295 327.782 107.996 328.411C107.708 329.04 107.297 329.52 106.764 329.851C106.231 330.182 105.607 330.347 104.892 330.347C104.177 330.347 103.559 330.171 103.036 329.819C102.524 329.456 102.177 328.971 101.996 328.363H102.172V333.659H100.716ZM104.556 329.195C105.292 329.195 105.879 328.939 106.316 328.427C106.753 327.915 106.972 327.163 106.972 326.171C106.972 325.179 106.753 324.432 106.316 323.931C105.879 323.43 105.292 323.179 104.556 323.179C103.82 323.179 103.233 323.43 102.796 323.931C102.369 324.432 102.156 325.179 102.156 326.171C102.156 327.163 102.369 327.915 102.796 328.427C103.233 328.939 103.82 329.195 104.556 329.195ZM118.286 330.347C117.006 330.347 115.993 329.979 115.246 329.243C114.51 328.507 114.142 327.494 114.142 326.203C114.142 325.35 114.302 324.614 114.622 323.995C114.953 323.366 115.406 322.88 115.982 322.539C116.558 322.187 117.23 322.011 117.998 322.011C118.734 322.011 119.358 322.171 119.87 322.491C120.382 322.8 120.772 323.243 121.038 323.819C121.305 324.395 121.438 325.078 121.438 325.867V326.347H115.278V325.483H120.446L120.174 325.691C120.174 324.859 119.988 324.214 119.614 323.755C119.252 323.296 118.713 323.067 117.998 323.067C117.22 323.067 116.617 323.339 116.19 323.883C115.764 324.416 115.55 325.147 115.55 326.075V326.219C115.55 327.2 115.79 327.942 116.27 328.443C116.761 328.944 117.438 329.195 118.302 329.195C118.782 329.195 119.23 329.126 119.646 328.987C120.062 328.848 120.462 328.619 120.846 328.299L121.326 329.307C120.964 329.638 120.51 329.894 119.966 330.075C119.433 330.256 118.873 330.347 118.286 330.347ZM123.341 330.203V324.059C123.341 323.75 123.33 323.435 123.309 323.115C123.288 322.795 123.256 322.475 123.213 322.155H124.621L124.781 323.883H124.589C124.834 323.275 125.213 322.811 125.725 322.491C126.237 322.171 126.834 322.011 127.517 322.011C128.466 322.011 129.181 322.272 129.661 322.795C130.141 323.307 130.381 324.107 130.381 325.195V330.203H128.925V325.275C128.925 324.539 128.781 324.011 128.493 323.691C128.205 323.36 127.757 323.195 127.149 323.195C126.424 323.195 125.848 323.414 125.421 323.851C125.005 324.288 124.797 324.88 124.797 325.627V330.203H123.341ZM135.771 330.347C134.928 330.347 134.288 330.118 133.851 329.659C133.424 329.19 133.211 328.486 133.211 327.547V323.275H131.643V322.155H133.211V319.995L134.667 319.595V322.155H136.939V323.275H134.667V327.419C134.667 328.038 134.774 328.48 134.987 328.747C135.211 329.003 135.531 329.131 135.947 329.131C136.16 329.131 136.342 329.115 136.491 329.083C136.651 329.04 136.795 328.992 136.923 328.939V330.139C136.763 330.203 136.576 330.251 136.363 330.283C136.16 330.326 135.963 330.347 135.771 330.347ZM142.052 330.347C140.772 330.347 139.759 329.979 139.012 329.243C138.276 328.507 137.908 327.494 137.908 326.203C137.908 325.35 138.068 324.614 138.388 323.995C138.719 323.366 139.172 322.88 139.748 322.539C140.324 322.187 140.996 322.011 141.764 322.011C142.5 322.011 143.124 322.171 143.636 322.491C144.148 322.8 144.537 323.243 144.804 323.819C145.071 324.395 145.204 325.078 145.204 325.867V326.347H139.044V325.483H144.212L143.94 325.691C143.94 324.859 143.753 324.214 143.38 323.755C143.017 323.296 142.479 323.067 141.764 323.067C140.985 323.067 140.383 323.339 139.956 323.883C139.529 324.416 139.316 325.147 139.316 326.075V326.219C139.316 327.2 139.556 327.942 140.036 328.443C140.527 328.944 141.204 329.195 142.068 329.195C142.548 329.195 142.996 329.126 143.412 328.987C143.828 328.848 144.228 328.619 144.612 328.299L145.092 329.307C144.729 329.638 144.276 329.894 143.732 330.075C143.199 330.256 142.639 330.347 142.052 330.347ZM147.091 330.203V324.123C147.091 323.803 147.08 323.478 147.059 323.147C147.048 322.806 147.021 322.475 146.979 322.155H148.387L148.563 324.171L148.323 324.187C148.429 323.696 148.611 323.291 148.867 322.971C149.133 322.64 149.448 322.4 149.811 322.251C150.184 322.091 150.568 322.011 150.963 322.011C151.133 322.011 151.277 322.016 151.395 322.027C151.512 322.038 151.629 322.064 151.747 322.107L151.715 323.403C151.555 323.339 151.405 323.302 151.267 323.291C151.139 323.27 150.979 323.259 150.787 323.259C150.317 323.259 149.912 323.366 149.571 323.579C149.24 323.792 148.984 324.075 148.803 324.427C148.632 324.779 148.547 325.158 148.547 325.563V330.203H147.091ZM156.474 330.347C155.631 330.347 154.991 330.118 154.554 329.659C154.127 329.19 153.914 328.486 153.914 327.547V323.275H152.346V322.155H153.914V319.995L155.37 319.595V322.155H157.642V323.275H155.37V327.419C155.37 328.038 155.477 328.48 155.69 328.747C155.914 329.003 156.234 329.131 156.65 329.131C156.863 329.131 157.045 329.115 157.194 329.083C157.354 329.04 157.498 328.992 157.626 328.939V330.139C157.466 330.203 157.279 330.251 157.066 330.283C156.863 330.326 156.666 330.347 156.474 330.347ZM162.241 330.347C161.537 330.347 160.918 330.182 160.385 329.851C159.852 329.52 159.436 329.04 159.137 328.411C158.838 327.782 158.689 327.035 158.689 326.171C158.689 325.307 158.838 324.566 159.137 323.947C159.436 323.318 159.852 322.838 160.385 322.507C160.918 322.176 161.537 322.011 162.241 322.011C162.956 322.011 163.574 322.192 164.097 322.555C164.63 322.907 164.982 323.392 165.153 324.011H164.961L165.137 322.155H166.545C166.513 322.475 166.481 322.795 166.449 323.115C166.428 323.435 166.417 323.75 166.417 324.059V330.203H164.961V328.363H165.137C164.966 328.971 164.614 329.456 164.081 329.819C163.558 330.171 162.945 330.347 162.241 330.347ZM162.577 329.195C163.302 329.195 163.884 328.939 164.321 328.427C164.758 327.915 164.977 327.163 164.977 326.171C164.977 325.179 164.758 324.432 164.321 323.931C163.884 323.43 163.302 323.179 162.577 323.179C161.852 323.179 161.265 323.43 160.817 323.931C160.38 324.432 160.161 325.179 160.161 326.171C160.161 327.163 160.38 327.915 160.817 328.427C161.254 328.939 161.841 329.195 162.577 329.195ZM168.857 330.203V322.155H170.313V330.203H168.857ZM168.729 320.395V318.827H170.457V320.395H168.729ZM172.747 330.203V324.059C172.747 323.75 172.737 323.435 172.715 323.115C172.694 322.795 172.662 322.475 172.619 322.155H174.027L174.187 323.883H173.995C174.241 323.275 174.619 322.811 175.131 322.491C175.643 322.171 176.241 322.011 176.923 322.011C177.873 322.011 178.587 322.272 179.067 322.795C179.547 323.307 179.787 324.107 179.787 325.195V330.203H178.331V325.275C178.331 324.539 178.187 324.011 177.899 323.691C177.611 323.36 177.163 323.195 176.555 323.195C175.83 323.195 175.254 323.414 174.827 323.851C174.411 324.288 174.203 324.88 174.203 325.627V330.203H172.747ZM182.169 330.203V324.059C182.169 323.75 182.158 323.435 182.137 323.115C182.116 322.795 182.084 322.475 182.041 322.155H183.449L183.609 323.883H183.417C183.63 323.286 183.972 322.827 184.441 322.507C184.91 322.176 185.47 322.011 186.121 322.011C186.782 322.011 187.326 322.171 187.753 322.491C188.18 322.8 188.468 323.291 188.617 323.963H188.377C188.58 323.366 188.937 322.891 189.449 322.539C189.961 322.187 190.558 322.011 191.241 322.011C192.126 322.011 192.793 322.272 193.241 322.795C193.689 323.307 193.913 324.107 193.913 325.195V330.203H192.457V325.275C192.457 324.539 192.329 324.011 192.073 323.691C191.817 323.36 191.412 323.195 190.857 323.195C190.206 323.195 189.694 323.419 189.321 323.867C188.948 324.304 188.761 324.902 188.761 325.659V330.203H187.305V325.275C187.305 324.539 187.177 324.011 186.921 323.691C186.676 323.36 186.27 323.195 185.705 323.195C185.054 323.195 184.542 323.419 184.169 323.867C183.806 324.304 183.625 324.902 183.625 325.659V330.203H182.169ZM199.958 330.347C198.678 330.347 197.665 329.979 196.918 329.243C196.182 328.507 195.814 327.494 195.814 326.203C195.814 325.35 195.974 324.614 196.294 323.995C196.625 323.366 197.078 322.88 197.654 322.539C198.23 322.187 198.902 322.011 199.67 322.011C200.406 322.011 201.03 322.171 201.542 322.491C202.054 322.8 202.443 323.243 202.71 323.819C202.977 324.395 203.11 325.078 203.11 325.867V326.347H196.95V325.483H202.118L201.846 325.691C201.846 324.859 201.659 324.214 201.286 323.755C200.923 323.296 200.385 323.067 199.67 323.067C198.891 323.067 198.289 323.339 197.862 323.883C197.435 324.416 197.222 325.147 197.222 326.075V326.219C197.222 327.2 197.462 327.942 197.942 328.443C198.433 328.944 199.11 329.195 199.974 329.195C200.454 329.195 200.902 329.126 201.318 328.987C201.734 328.848 202.134 328.619 202.518 328.299L202.998 329.307C202.635 329.638 202.182 329.894 201.638 330.075C201.105 330.256 200.545 330.347 199.958 330.347ZM205.013 330.203V324.059C205.013 323.75 205.002 323.435 204.981 323.115C204.96 322.795 204.928 322.475 204.885 322.155H206.293L206.453 323.883H206.261C206.506 323.275 206.885 322.811 207.397 322.491C207.909 322.171 208.506 322.011 209.189 322.011C210.138 322.011 210.853 322.272 211.333 322.795C211.813 323.307 212.053 324.107 212.053 325.195V330.203H210.597V325.275C210.597 324.539 210.453 324.011 210.165 323.691C209.877 323.36 209.429 323.195 208.821 323.195C208.096 323.195 207.52 323.414 207.093 323.851C206.677 324.288 206.469 324.88 206.469 325.627V330.203H205.013ZM217.443 330.347C216.6 330.347 215.96 330.118 215.523 329.659C215.096 329.19 214.883 328.486 214.883 327.547V323.275H213.315V322.155H214.883V319.995L216.339 319.595V322.155H218.611V323.275H216.339V327.419C216.339 328.038 216.445 328.48 216.659 328.747C216.883 329.003 217.203 329.131 217.619 329.131C217.832 329.131 218.013 329.115 218.163 329.083C218.323 329.04 218.467 328.992 218.595 328.939V330.139C218.435 330.203 218.248 330.251 218.035 330.283C217.832 330.326 217.635 330.347 217.443 330.347ZM227.429 330.347C226.725 330.347 226.106 330.182 225.573 329.851C225.039 329.52 224.623 329.04 224.325 328.411C224.026 327.782 223.877 327.035 223.877 326.171C223.877 325.307 224.026 324.566 224.325 323.947C224.623 323.318 225.039 322.838 225.573 322.507C226.106 322.176 226.725 322.011 227.429 322.011C228.143 322.011 228.762 322.192 229.285 322.555C229.818 322.907 230.17 323.392 230.341 324.011H230.149L230.325 322.155H231.733C231.701 322.475 231.669 322.795 231.637 323.115C231.615 323.435 231.605 323.75 231.605 324.059V330.203H230.149V328.363H230.325C230.154 328.971 229.802 329.456 229.269 329.819C228.746 330.171 228.133 330.347 227.429 330.347ZM227.765 329.195C228.49 329.195 229.071 328.939 229.509 328.427C229.946 327.915 230.165 327.163 230.165 326.171C230.165 325.179 229.946 324.432 229.509 323.931C229.071 323.43 228.49 323.179 227.765 323.179C227.039 323.179 226.453 323.43 226.005 323.931C225.567 324.432 225.349 325.179 225.349 326.171C225.349 327.163 225.567 327.915 226.005 328.427C226.442 328.939 227.029 329.195 227.765 329.195ZM237.5 330.347C236.7 330.347 236.007 330.182 235.42 329.851C234.833 329.51 234.375 329.024 234.044 328.395C233.724 327.755 233.564 326.998 233.564 326.123C233.564 325.259 233.729 324.523 234.06 323.915C234.391 323.296 234.849 322.827 235.436 322.507C236.023 322.176 236.711 322.011 237.5 322.011C238.023 322.011 238.529 322.102 239.02 322.283C239.511 322.454 239.911 322.704 240.22 323.035L239.724 324.059C239.415 323.76 239.073 323.542 238.7 323.403C238.327 323.254 237.959 323.179 237.596 323.179C236.807 323.179 236.188 323.435 235.74 323.947C235.292 324.448 235.068 325.179 235.068 326.139C235.068 327.11 235.292 327.856 235.74 328.379C236.188 328.902 236.807 329.163 237.596 329.163C237.948 329.163 238.311 329.094 238.684 328.955C239.057 328.816 239.404 328.598 239.724 328.299L240.22 329.307C239.9 329.648 239.489 329.91 238.988 330.091C238.497 330.262 238.001 330.347 237.5 330.347ZM245.021 330.347C244.178 330.347 243.538 330.118 243.101 329.659C242.674 329.19 242.461 328.486 242.461 327.547V323.275H240.893V322.155H242.461V319.995L243.917 319.595V322.155H246.189V323.275H243.917V327.419C243.917 328.038 244.024 328.48 244.237 328.747C244.461 329.003 244.781 329.131 245.197 329.131C245.41 329.131 245.592 329.115 245.741 329.083C245.901 329.04 246.045 328.992 246.173 328.939V330.139C246.013 330.203 245.826 330.251 245.613 330.283C245.41 330.326 245.213 330.347 245.021 330.347ZM247.716 330.203V322.155H249.172V330.203H247.716ZM247.588 320.395V318.827H249.316V320.395H247.588ZM253.975 330.203L250.535 322.155H252.103L254.903 329.067H254.455L257.303 322.155H258.791L255.335 330.203H253.975ZM260.154 330.203V322.155H261.61V330.203H260.154ZM260.026 320.395V318.827H261.754V320.395H260.026ZM267.052 330.347C266.209 330.347 265.569 330.118 265.132 329.659C264.705 329.19 264.492 328.486 264.492 327.547V323.275H262.924V322.155H264.492V319.995L265.948 319.595V322.155H268.22V323.275H265.948V327.419C265.948 328.038 266.055 328.48 266.268 328.747C266.492 329.003 266.812 329.131 267.228 329.131C267.441 329.131 267.623 329.115 267.772 329.083C267.932 329.04 268.076 328.992 268.204 328.939V330.139C268.044 330.203 267.857 330.251 267.644 330.283C267.441 330.326 267.244 330.347 267.052 330.347ZM269.747 330.203V322.155H271.203V330.203H269.747ZM269.619 320.395V318.827H271.347V320.395H269.619ZM277.302 330.347C276.022 330.347 275.009 329.979 274.262 329.243C273.526 328.507 273.158 327.494 273.158 326.203C273.158 325.35 273.318 324.614 273.638 323.995C273.969 323.366 274.422 322.88 274.998 322.539C275.574 322.187 276.246 322.011 277.014 322.011C277.75 322.011 278.374 322.171 278.886 322.491C279.398 322.8 279.787 323.243 280.054 323.819C280.321 324.395 280.454 325.078 280.454 325.867V326.347H274.294V325.483H279.462L279.19 325.691C279.19 324.859 279.003 324.214 278.63 323.755C278.267 323.296 277.729 323.067 277.014 323.067C276.235 323.067 275.633 323.339 275.206 323.883C274.779 324.416 274.566 325.147 274.566 326.075V326.219C274.566 327.2 274.806 327.942 275.286 328.443C275.777 328.944 276.454 329.195 277.318 329.195C277.798 329.195 278.246 329.126 278.662 328.987C279.078 328.848 279.478 328.619 279.862 328.299L280.342 329.307C279.979 329.638 279.526 329.894 278.982 330.075C278.449 330.256 277.889 330.347 277.302 330.347ZM285.077 330.347C284.426 330.347 283.818 330.262 283.253 330.091C282.698 329.92 282.239 329.675 281.877 329.355L282.341 328.347C282.735 328.646 283.167 328.875 283.637 329.035C284.117 329.184 284.607 329.259 285.109 329.259C285.717 329.259 286.175 329.147 286.485 328.923C286.805 328.699 286.965 328.4 286.965 328.027C286.965 327.728 286.863 327.488 286.661 327.307C286.458 327.126 286.138 326.992 285.701 326.907L284.181 326.603C283.498 326.443 282.981 326.187 282.629 325.835C282.287 325.472 282.117 325.008 282.117 324.443C282.117 323.974 282.245 323.558 282.501 323.195C282.757 322.822 283.119 322.534 283.589 322.331C284.069 322.118 284.629 322.011 285.269 322.011C285.855 322.011 286.399 322.096 286.901 322.267C287.413 322.438 287.834 322.688 288.165 323.019L287.685 323.995C287.354 323.707 286.981 323.488 286.565 323.339C286.159 323.179 285.743 323.099 285.317 323.099C284.698 323.099 284.239 323.222 283.941 323.467C283.642 323.702 283.493 324.011 283.493 324.395C283.493 324.683 283.583 324.923 283.765 325.115C283.946 325.296 284.239 325.435 284.645 325.531L286.165 325.835C286.879 325.984 287.418 326.23 287.781 326.571C288.143 326.912 288.325 327.366 288.325 327.931C288.325 328.432 288.186 328.864 287.909 329.227C287.642 329.59 287.263 329.867 286.773 330.059C286.293 330.251 285.727 330.347 285.077 330.347Z" fill="#0B1623"/>
<g filter="url(#filter1_d_2818_2012)">
<rect x="41" y="382.203" width="287" height="48" rx="24" fill="#FFA3C4" shape-rendering="crispEdges"/>
<rect x="41.5" y="382.703" width="286" height="47" rx="23.5" stroke="#0B1623" shape-rendering="crispEdges"/>
<path d="M148.376 412.203V400.923H152.968C154.184 400.923 155.117 401.179 155.768 401.691C156.419 402.203 156.744 402.923 156.744 403.851C156.744 404.555 156.531 405.142 156.104 405.611C155.688 406.08 155.117 406.395 154.392 406.555V406.315C155.224 406.411 155.869 406.699 156.328 407.179C156.797 407.659 157.032 408.294 157.032 409.083C157.032 410.086 156.696 410.859 156.024 411.403C155.352 411.936 154.403 412.203 153.176 412.203H148.376ZM149.816 411.019H153.032C153.821 411.019 154.44 410.87 154.888 410.571C155.347 410.262 155.576 409.755 155.576 409.051C155.576 408.336 155.347 407.83 154.888 407.531C154.44 407.232 153.821 407.083 153.032 407.083H149.816V411.019ZM149.816 405.899H152.76C153.603 405.899 154.232 405.739 154.648 405.419C155.064 405.088 155.272 404.614 155.272 403.995C155.272 403.376 155.064 402.907 154.648 402.587C154.232 402.256 153.603 402.091 152.76 402.091H149.816V405.899ZM162.53 412.347C161.741 412.347 161.058 412.182 160.482 411.851C159.906 411.51 159.458 411.03 159.138 410.411C158.818 409.782 158.658 409.035 158.658 408.171C158.658 407.318 158.818 406.582 159.138 405.963C159.458 405.334 159.906 404.854 160.482 404.523C161.058 404.182 161.741 404.011 162.53 404.011C163.319 404.011 164.002 404.182 164.578 404.523C165.165 404.854 165.613 405.334 165.922 405.963C166.242 406.582 166.402 407.318 166.402 408.171C166.402 409.035 166.242 409.782 165.922 410.411C165.613 411.03 165.165 411.51 164.578 411.851C164.002 412.182 163.319 412.347 162.53 412.347ZM162.53 411.195C163.255 411.195 163.837 410.939 164.274 410.427C164.711 409.915 164.93 409.163 164.93 408.171C164.93 407.179 164.711 406.432 164.274 405.931C163.837 405.43 163.255 405.179 162.53 405.179C161.794 405.179 161.207 405.43 160.77 405.931C160.343 406.432 160.13 407.179 160.13 408.171C160.13 409.163 160.343 409.915 160.77 410.427C161.207 410.939 161.794 411.195 162.53 411.195ZM171.749 412.347C170.959 412.347 170.277 412.182 169.701 411.851C169.125 411.51 168.677 411.03 168.357 410.411C168.037 409.782 167.877 409.035 167.877 408.171C167.877 407.318 168.037 406.582 168.357 405.963C168.677 405.334 169.125 404.854 169.701 404.523C170.277 404.182 170.959 404.011 171.749 404.011C172.538 404.011 173.221 404.182 173.797 404.523C174.383 404.854 174.831 405.334 175.141 405.963C175.461 406.582 175.621 407.318 175.621 408.171C175.621 409.035 175.461 409.782 175.141 410.411C174.831 411.03 174.383 411.51 173.797 411.851C173.221 412.182 172.538 412.347 171.749 412.347ZM171.749 411.195C172.474 411.195 173.055 410.939 173.493 410.427C173.93 409.915 174.149 409.163 174.149 408.171C174.149 407.179 173.93 406.432 173.493 405.931C173.055 405.43 172.474 405.179 171.749 405.179C171.013 405.179 170.426 405.43 169.989 405.931C169.562 406.432 169.349 407.179 169.349 408.171C169.349 409.163 169.562 409.915 169.989 410.427C170.426 410.939 171.013 411.195 171.749 411.195ZM177.575 412.203V400.427H179.031V407.707H179.063L182.695 404.155H184.503L180.183 408.379L180.199 407.691L184.887 412.203H183.031L179.063 408.459H179.031V412.203H177.575ZM190.169 412.203V406.059C190.169 405.75 190.158 405.435 190.137 405.115C190.116 404.795 190.084 404.475 190.041 404.155H191.449L191.609 405.883H191.417C191.662 405.275 192.041 404.811 192.553 404.491C193.065 404.171 193.662 404.011 194.345 404.011C195.294 404.011 196.009 404.272 196.489 404.795C196.969 405.307 197.209 406.107 197.209 407.195V412.203H195.753V407.275C195.753 406.539 195.609 406.011 195.321 405.691C195.033 405.36 194.585 405.195 193.977 405.195C193.252 405.195 192.676 405.414 192.249 405.851C191.833 406.288 191.625 406.88 191.625 407.627V412.203H190.169ZM202.983 412.347C202.194 412.347 201.511 412.182 200.935 411.851C200.359 411.51 199.911 411.03 199.591 410.411C199.271 409.782 199.111 409.035 199.111 408.171C199.111 407.318 199.271 406.582 199.591 405.963C199.911 405.334 200.359 404.854 200.935 404.523C201.511 404.182 202.194 404.011 202.983 404.011C203.772 404.011 204.455 404.182 205.031 404.523C205.618 404.854 206.066 405.334 206.375 405.963C206.695 406.582 206.855 407.318 206.855 408.171C206.855 409.035 206.695 409.782 206.375 410.411C206.066 411.03 205.618 411.51 205.031 411.851C204.455 412.182 203.772 412.347 202.983 412.347ZM202.983 411.195C203.708 411.195 204.29 410.939 204.727 410.427C205.164 409.915 205.383 409.163 205.383 408.171C205.383 407.179 205.164 406.432 204.727 405.931C204.29 405.43 203.708 405.179 202.983 405.179C202.247 405.179 201.66 405.43 201.223 405.931C200.796 406.432 200.583 407.179 200.583 408.171C200.583 409.163 200.796 409.915 201.223 410.427C201.66 410.939 202.247 411.195 202.983 411.195ZM210.861 412.203L207.853 404.155H209.373L211.805 411.051H211.389L213.885 404.155H215.069L217.549 411.051H217.149L219.597 404.155H221.053L218.029 412.203H216.653L214.093 405.195H214.797L212.253 412.203H210.861Z" fill="#0B1623"/>
</g>
</g>
<defs>
<filter id="filter0_d_2818_2012" x="0" y="0.203125" width="371" height="474" filterUnits="userSpaceOnUse" color-interpolation-filters="sRGB">
<feFlood flood-opacity="0" result="BackgroundImageFix"/>
<feColorMatrix in="SourceAlpha" type="matrix" values="0 0 0 0 0 0 0 0 0 0 0 0 0 0 0 0 0 0 127 0" result="hardAlpha"/>
<feOffset dx="2" dy="3"/>
<feComposite in2="hardAlpha" operator="out"/>
<feColorMatrix type="matrix" values="0 0 0 0 0 0 0 0 0 0.0862745 0 0 0 0 0.160784 0 0 0 1 0"/>
<feBlend mode="normal" in2="BackgroundImageFix" result="effect1_dropShadow_2818_2012"/>
<feBlend mode="normal" in="SourceGraphic" in2="effect1_dropShadow_2818_2012" result="shape"/>
</filter>
<filter id="filter1_d_2818_2012" x="41" y="382.203" width="289" height="51" filterUnits="userSpaceOnUse" color-interpolation-filters="sRGB">
<feFlood flood-opacity="0" result="BackgroundImageFix"/>
<feColorMatrix in="SourceAlpha" type="matrix" values="0 0 0 0 0 0 0 0 0 0 0 0 0 0 0 0 0 0 127 0" result="hardAlpha"/>
<feOffset dx="2" dy="3"/>
<feComposite in2="hardAlpha" operator="out"/>
<feColorMatrix type="matrix" values="0 0 0 0 0.0431373 0 0 0 0 0.0862745 0 0 0 0 0.137255 0 0 0 1 0"/>
<feBlend mode="normal" in2="BackgroundImageFix" result="effect1_dropShadow_2818_2012"/>
<feBlend mode="normal" in="SourceGraphic" in2="effect1_dropShadow_2818_2012" result="shape"/>
</filter>
</defs>
</svg>
