<svg width="371" height="475" viewBox="0 0 371 475" fill="none" xmlns="http://www.w3.org/2000/svg">
<g filter="url(#filter0_d_2818_2014)">
<path d="M0 32.2031C0 14.53 14.3269 0.203125 32 0.203125H269C324.228 0.203125 369 44.9746 369 100.203V439.203C369 456.876 354.673 471.203 337 471.203H32C14.3269 471.203 0 456.876 0 439.203V32.2031Z" fill="white" shape-rendering="crispEdges"/>
<path d="M0.5 32.2031C0.5 14.8061 14.603 0.703125 32 0.703125H269C323.952 0.703125 368.5 45.2508 368.5 100.203V439.203C368.5 456.6 354.397 470.703 337 470.703H32C14.603 470.703 0.5 456.6 0.5 439.203V32.2031Z" stroke="#0B1623" shape-rendering="crispEdges"/>
<path d="M45.975 66.2031V52.6531L43.8 54.0531L43.2 53.2781L47.05 49.7031H49.225V66.2031H45.975ZM59.3061 66.2031V61.9531H51.3061V60.9531L59.9561 49.7031H62.5561V60.8281H64.8061V61.9531H62.5561V66.2031H59.3061ZM53.0311 60.8281H59.3061V52.6281L53.0311 60.8281ZM74.0127 52.9531C74.0127 52.1031 73.896 51.4781 73.6627 51.0781C73.4294 50.6615 72.9627 50.4531 72.2627 50.4531H72.0127V49.7031H78.8127C82.1794 49.7031 84.7377 50.4198 86.4877 51.8531C88.2544 53.2698 89.1377 55.2698 89.1377 57.8531C89.1377 59.5031 88.7627 60.9615 88.0127 62.2281C87.2794 63.4781 86.1794 64.4531 84.7127 65.1531C83.2627 65.8531 81.5127 66.2031 79.4627 66.2031H74.0127V52.9531ZM79.3877 65.2031C80.5544 65.2031 81.5877 64.9115 82.4877 64.3281C83.4044 63.7448 84.1127 62.9031 84.6127 61.8031C85.1294 60.7031 85.3877 59.4198 85.3877 57.9531C85.3877 56.5031 85.1294 55.2365 84.6127 54.1531C84.1127 53.0531 83.4044 52.2031 82.4877 51.6031C81.571 51.0031 80.521 50.7031 79.3377 50.7031H79.1377C78.5877 50.7031 78.146 50.7365 77.8127 50.8031L77.2627 50.8781V65.0281L77.8127 65.1281C78.1627 65.1781 78.6044 65.2031 79.1377 65.2031H79.3877ZM95.0209 66.4531C93.6709 66.4531 92.6209 66.1531 91.8709 65.5531C91.1376 64.9365 90.7709 64.1115 90.7709 63.0781C90.7709 62.2448 90.9626 61.5531 91.3459 61.0031C91.7459 60.4531 92.4376 60.0365 93.4209 59.7531C94.4042 59.4698 95.7709 59.3281 97.5209 59.3281H97.8959C97.8959 57.8781 97.6959 56.8531 97.2959 56.2531C96.8959 55.6365 96.3042 55.3281 95.5209 55.3281C94.8709 55.3281 94.3376 55.4865 93.9209 55.8031C93.5042 56.1198 93.2042 56.7115 93.0209 57.5781H91.6459C91.6459 57.0115 91.6792 56.5281 91.7459 56.1281C91.8292 55.7281 92.0042 55.3781 92.2709 55.0781C92.7876 54.4948 94.0376 54.2031 96.0209 54.2031C97.6876 54.2031 98.9542 54.6448 99.8209 55.5281C100.704 56.3948 101.146 57.7031 101.146 59.4531V66.2031H99.0209L98.1459 65.0781H98.0209C97.8709 65.3115 97.6376 65.5448 97.3209 65.7781C96.7542 66.2281 95.9876 66.4531 95.0209 66.4531ZM95.7709 65.2031C96.1209 65.2031 96.4209 65.1365 96.6709 65.0031C96.9209 64.8531 97.1626 64.6531 97.3959 64.4031C97.6126 64.1698 97.7792 63.8948 97.8959 63.5781V60.4531H97.5209C96.3376 60.4531 95.4792 60.6698 94.9459 61.1031C94.4126 61.5198 94.1459 62.1781 94.1459 63.0781C94.1459 63.7615 94.2876 64.2865 94.5709 64.6531C94.8542 65.0198 95.2542 65.2031 95.7709 65.2031ZM104.455 70.3281C105.372 70.3281 106.114 70.1531 106.68 69.8031C107.247 69.4531 107.705 68.8198 108.055 67.9031L108.58 66.5531L104.08 56.7031C103.53 55.5031 102.755 54.8365 101.755 54.7031V54.2031H103.955C104.689 54.2031 105.339 54.3865 105.905 54.7531C106.472 55.1031 106.905 55.5865 107.205 56.2031L110.08 62.5031L113.13 54.4531H114.455L109.405 67.8281C108.939 69.1281 108.397 70.0115 107.78 70.4781C107.164 70.9615 106.389 71.2031 105.455 71.2031H104.455V70.3281ZM120.6 66.4531C118.65 66.4531 117.308 66.1115 116.575 65.4281C116.308 65.1781 116.142 64.8281 116.075 64.3781C116.008 63.9115 115.975 63.2698 115.975 62.4531H116.85C117 63.3198 117.342 64.0198 117.875 64.5531C118.408 65.0698 119.15 65.3281 120.1 65.3281C121.767 65.3281 122.6 64.7615 122.6 63.6281C122.6 63.1948 122.417 62.8365 122.05 62.5531C121.7 62.2698 121.133 61.9531 120.35 61.6031L119.05 61.0531C117.983 60.5865 117.183 60.0781 116.65 59.5281C116.117 58.9781 115.85 58.3115 115.85 57.5281C115.85 56.4781 116.283 55.6615 117.15 55.0781C118.033 54.4948 119.183 54.2031 120.6 54.2031C122.55 54.2031 123.892 54.5448 124.625 55.2281C124.892 55.4781 125.058 55.8281 125.125 56.2781C125.192 56.7281 125.225 57.3698 125.225 58.2031H124.35C124.2 57.3365 123.858 56.6448 123.325 56.1281C122.792 55.5948 122.05 55.3281 121.1 55.3281C120.383 55.3281 119.85 55.4865 119.5 55.8031C119.15 56.1031 118.975 56.5115 118.975 57.0281C118.975 57.4448 119.117 57.7948 119.4 58.0781C119.7 58.3448 120.15 58.6115 120.75 58.8781L122.25 59.5031C123.483 60.0198 124.367 60.5448 124.9 61.0781C125.45 61.5948 125.725 62.2781 125.725 63.1281C125.725 64.1948 125.25 65.0198 124.3 65.6031C123.367 66.1698 122.133 66.4531 120.6 66.4531ZM135.194 52.9531C135.194 52.1031 135.078 51.4781 134.844 51.0781C134.611 50.6615 134.144 50.4531 133.444 50.4531H133.194V49.7031H140.069C141.786 49.7031 143.336 50.0448 144.719 50.7281C146.119 51.3948 146.819 52.7281 146.819 54.7281C146.819 56.0281 146.453 57.0365 145.719 57.7531C145.003 58.4698 144.194 58.9448 143.294 59.1781C142.394 59.4115 141.569 59.5281 140.819 59.5281H138.444V66.2031H135.194V52.9531ZM139.944 58.5281C140.928 58.5281 141.736 58.2281 142.369 57.6281C143.003 57.0281 143.319 56.0198 143.319 54.6031C143.319 53.2031 143.003 52.2031 142.369 51.6031C141.753 51.0031 140.986 50.7031 140.069 50.7031C139.586 50.7031 139.211 50.7365 138.944 50.8031L138.444 50.8781V58.5281H139.944ZM152.028 66.4531C150.678 66.4531 149.628 66.1531 148.878 65.5531C148.144 64.9365 147.778 64.1115 147.778 63.0781C147.778 62.2448 147.969 61.5531 148.353 61.0031C148.753 60.4531 149.444 60.0365 150.428 59.7531C151.411 59.4698 152.778 59.3281 154.528 59.3281H154.903C154.903 57.8781 154.703 56.8531 154.303 56.2531C153.903 55.6365 153.311 55.3281 152.528 55.3281C151.878 55.3281 151.344 55.4865 150.928 55.8031C150.511 56.1198 150.211 56.7115 150.028 57.5781H148.653C148.653 57.0115 148.686 56.5281 148.753 56.1281C148.836 55.7281 149.011 55.3781 149.278 55.0781C149.794 54.4948 151.044 54.2031 153.028 54.2031C154.694 54.2031 155.961 54.6448 156.828 55.5281C157.711 56.3948 158.153 57.7031 158.153 59.4531V66.2031H156.028L155.153 65.0781H155.028C154.878 65.3115 154.644 65.5448 154.328 65.7781C153.761 66.2281 152.994 66.4531 152.028 66.4531ZM152.778 65.2031C153.128 65.2031 153.428 65.1365 153.678 65.0031C153.928 64.8531 154.169 64.6531 154.403 64.4031C154.619 64.1698 154.786 63.8948 154.903 63.5781V60.4531H154.528C153.344 60.4531 152.486 60.6698 151.953 61.1031C151.419 61.5198 151.153 62.1781 151.153 63.0781C151.153 63.7615 151.294 64.2865 151.578 64.6531C151.861 65.0198 152.261 65.2031 152.778 65.2031ZM166.355 66.4531C165.072 66.4531 163.98 66.1781 163.08 65.6281C162.18 65.0781 161.497 64.3448 161.03 63.4281C160.58 62.4948 160.355 61.4615 160.355 60.3281C160.355 59.1948 160.58 58.1698 161.03 57.2531C161.497 56.3198 162.18 55.5781 163.08 55.0281C163.98 54.4781 165.072 54.2031 166.355 54.2031C168.355 54.2031 169.647 54.4948 170.23 55.0781C170.513 55.3615 170.688 55.7365 170.755 56.2031C170.822 56.6698 170.855 57.4615 170.855 58.5781H170.105C170.038 57.5281 169.713 56.7281 169.13 56.1781C168.547 55.6115 167.747 55.3281 166.73 55.3281C165.813 55.3281 165.08 55.7531 164.53 56.6031C163.997 57.4365 163.73 58.6781 163.73 60.3281C163.73 63.6615 164.772 65.3281 166.855 65.3281C167.655 65.3281 168.322 65.1531 168.855 64.8031C169.405 64.4365 169.93 63.9198 170.43 63.2531L171.205 63.8281C170.722 64.5781 170.113 65.2031 169.38 65.7031C168.647 66.2031 167.638 66.4531 166.355 66.4531ZM182.732 66.4531C181.999 66.4531 181.324 66.3031 180.707 66.0031C180.107 65.6865 179.541 65.1698 179.007 64.4531L176.607 61.3031V66.2031H173.357V52.9531C173.357 52.1031 173.241 51.4781 173.007 51.0781C172.774 50.6615 172.307 50.4531 171.607 50.4531H171.357V49.7031H174.357C174.957 49.7031 175.416 49.8031 175.732 50.0031C176.049 50.2031 176.274 50.5365 176.407 51.0031C176.541 51.4531 176.607 52.1031 176.607 52.9531V60.0781L179.632 56.3781C180.199 55.6948 180.732 55.2031 181.232 54.9031C181.732 54.6031 182.399 54.4531 183.232 54.4531H183.732V55.1031C183.232 55.1031 182.782 55.2031 182.382 55.4031C181.982 55.6031 181.599 55.9198 181.232 56.3531L178.807 59.3031L182.132 63.7031C182.932 64.7865 183.707 65.4198 184.457 65.6031V66.2031C184.324 66.2698 184.074 66.3281 183.707 66.3781C183.357 66.4281 183.032 66.4531 182.732 66.4531ZM189.454 66.4531C188.104 66.4531 187.054 66.1531 186.304 65.5531C185.571 64.9365 185.204 64.1115 185.204 63.0781C185.204 62.2448 185.396 61.5531 185.779 61.0031C186.179 60.4531 186.871 60.0365 187.854 59.7531C188.838 59.4698 190.204 59.3281 191.954 59.3281H192.329C192.329 57.8781 192.129 56.8531 191.729 56.2531C191.329 55.6365 190.738 55.3281 189.954 55.3281C189.304 55.3281 188.771 55.4865 188.354 55.8031C187.938 56.1198 187.638 56.7115 187.454 57.5781H186.079C186.079 57.0115 186.113 56.5281 186.179 56.1281C186.263 55.7281 186.438 55.3781 186.704 55.0781C187.221 54.4948 188.471 54.2031 190.454 54.2031C192.121 54.2031 193.388 54.6448 194.254 55.5281C195.138 56.3948 195.579 57.7031 195.579 59.4531V66.2031H193.454L192.579 65.0781H192.454C192.304 65.3115 192.071 65.5448 191.754 65.7781C191.188 66.2281 190.421 66.4531 189.454 66.4531ZM190.204 65.2031C190.554 65.2031 190.854 65.1365 191.104 65.0031C191.354 64.8531 191.596 64.6531 191.829 64.4031C192.046 64.1698 192.213 63.8948 192.329 63.5781V60.4531H191.954C190.771 60.4531 189.913 60.6698 189.379 61.1031C188.846 61.5198 188.579 62.1781 188.579 63.0781C188.579 63.7615 188.721 64.2865 189.004 64.6531C189.288 65.0198 189.688 65.2031 190.204 65.2031ZM203.357 71.2031C201.457 71.2031 199.957 70.8948 198.857 70.2781C197.774 69.6781 197.232 68.6948 197.232 67.3281C197.232 66.4948 197.565 65.8031 198.232 65.2531C198.899 64.7031 199.69 64.3115 200.607 64.0781C199.857 63.8448 199.482 63.3865 199.482 62.7031C199.482 62.1365 199.815 61.7198 200.482 61.4531C199.765 61.2031 199.165 60.7698 198.682 60.1531C198.215 59.5365 197.982 58.8531 197.982 58.1031C197.982 56.7365 198.465 55.7448 199.432 55.1281C200.415 54.5115 201.724 54.2031 203.357 54.2031H208.607V54.8781L206.357 55.1781C207.057 55.4448 207.624 55.8531 208.057 56.4031C208.507 56.9531 208.732 57.5198 208.732 58.1031C208.732 59.4698 208.265 60.4531 207.332 61.0531C206.415 61.6531 205.09 61.9531 203.357 61.9531C202.49 61.9531 201.857 62.0031 201.457 62.1031C201.057 62.1865 200.857 62.3865 200.857 62.7031C200.857 62.9698 201.057 63.1448 201.457 63.2281C201.857 63.3115 202.49 63.3615 203.357 63.3781C205.157 63.4115 206.624 63.7698 207.757 64.4531C208.907 65.1198 209.482 66.0781 209.482 67.3281C209.482 68.6948 208.932 69.6781 207.832 70.2781C206.749 70.8948 205.257 71.2031 203.357 71.2031ZM203.357 60.9531C204.69 60.9531 205.357 60.0031 205.357 58.1031C205.357 57.1698 205.174 56.4531 204.807 55.9531C204.44 55.4531 203.957 55.2031 203.357 55.2031C202.74 55.2031 202.249 55.4448 201.882 55.9281C201.532 56.4115 201.357 57.1365 201.357 58.1031C201.357 60.0031 202.024 60.9531 203.357 60.9531ZM203.357 70.0781C204.224 70.0781 204.899 69.8448 205.382 69.3781C205.865 68.9281 206.107 68.2448 206.107 67.3281C206.107 66.5948 205.874 65.9865 205.407 65.5031C204.957 65.0031 204.34 64.6781 203.557 64.5281L202.382 64.4031C201.799 64.6531 201.357 65.0115 201.057 65.4781C200.757 65.9448 200.607 66.5615 200.607 67.3281C200.607 68.2448 200.849 68.9281 201.332 69.3781C201.815 69.8448 202.49 70.0781 203.357 70.0781ZM216.643 66.4531C215.493 66.4531 214.484 66.1865 213.618 65.6531C212.751 65.1198 212.076 64.3948 211.593 63.4781C211.126 62.5448 210.893 61.4948 210.893 60.3281C210.893 59.0281 211.126 57.9198 211.593 57.0031C212.076 56.0865 212.734 55.3948 213.568 54.9281C214.401 54.4448 215.343 54.2031 216.393 54.2031C217.426 54.2031 218.359 54.4115 219.193 54.8281C220.026 55.2448 220.684 55.8365 221.168 56.6031C221.651 57.3531 221.893 58.2198 221.893 59.2031C221.893 59.5198 221.876 59.8781 221.843 60.2781L221.793 60.7781H214.268C214.268 62.3615 214.509 63.5198 214.993 64.2531C215.476 64.9698 216.151 65.3281 217.018 65.3281C217.818 65.3281 218.484 65.1531 219.018 64.8031C219.568 64.4365 220.093 63.9198 220.593 63.2531L221.368 63.8281C220.884 64.5781 220.276 65.2031 219.543 65.7031C218.826 66.2031 217.859 66.4531 216.643 66.4531ZM218.518 59.6531C218.518 58.0865 218.334 56.9781 217.968 56.3281C217.601 55.6615 217.076 55.3281 216.393 55.3281C215.759 55.3281 215.243 55.6698 214.843 56.3531C214.459 57.0198 214.268 58.1198 214.268 59.6531H218.518Z" fill="#0B1623"/>
<path d="M1 113.203H368V438.203C368 455.876 353.673 470.203 336 470.203H33C15.3269 470.203 1 455.876 1 438.203V113.203Z" fill="#E6F4FF"/>
<path d="M53.992 186.523C51.6453 186.523 49.6293 186.054 47.944 185.115C46.28 184.155 45 182.811 44.104 181.083C43.208 179.334 42.76 177.275 42.76 174.907C42.76 172.539 43.208 170.491 44.104 168.763C45 167.035 46.28 165.702 47.944 164.763C49.6293 163.803 51.6453 163.323 53.992 163.323C55.5707 163.323 56.9893 163.547 58.248 163.995C59.528 164.443 60.6267 165.104 61.544 165.979L60.2 169.243C59.1973 168.432 58.2267 167.856 57.288 167.515C56.3707 167.152 55.3147 166.971 54.12 166.971C51.8373 166.971 50.088 167.664 48.872 169.051C47.6773 170.416 47.08 172.368 47.08 174.907C47.08 177.446 47.6773 179.408 48.872 180.795C50.088 182.182 51.8373 182.875 54.12 182.875C55.3147 182.875 56.3707 182.704 57.288 182.363C58.2267 182 59.1973 181.403 60.2 180.571L61.544 183.835C60.6267 184.688 59.528 185.35 58.248 185.819C56.9893 186.288 55.5707 186.523 53.992 186.523ZM65.4023 186.203V163.643H69.5303V173.051H81.0823V163.643H85.2103V186.203H81.0823V176.475H69.5303V186.203H65.4023ZM90.1835 186.203V163.643H105.064V166.875H94.3115V173.275H104.328V176.507H94.3115V186.203H90.1835ZM124.029 186.523C122.472 186.523 120.979 186.299 119.549 185.851C118.12 185.382 116.947 184.742 116.029 183.931L117.373 180.827C118.376 181.595 119.411 182.16 120.477 182.523C121.565 182.886 122.707 183.067 123.901 183.067C125.352 183.067 126.451 182.779 127.197 182.203C127.944 181.627 128.317 180.784 128.317 179.675C128.317 178.608 127.944 177.808 127.197 177.275C126.472 176.72 125.405 176.443 123.997 176.443H120.349V173.147H123.645C124.861 173.147 125.832 172.848 126.557 172.251C127.283 171.654 127.645 170.832 127.645 169.787C127.645 168.806 127.304 168.059 126.621 167.547C125.96 167.035 125 166.779 123.741 166.779C121.48 166.779 119.485 167.547 117.757 169.083L116.413 166.011C117.331 165.158 118.461 164.496 119.805 164.027C121.171 163.558 122.6 163.323 124.093 163.323C126.44 163.323 128.275 163.856 129.597 164.923C130.941 165.968 131.613 167.43 131.613 169.307C131.613 170.651 131.229 171.814 130.461 172.795C129.715 173.755 128.68 174.395 127.357 174.715V174.331C128.915 174.587 130.12 175.227 130.973 176.251C131.848 177.254 132.285 178.512 132.285 180.027C132.285 182.032 131.549 183.622 130.077 184.795C128.605 185.947 126.589 186.523 124.029 186.523ZM137.681 172.315L136.049 171.035C136.731 170.331 137.201 169.68 137.457 169.083C137.734 168.464 137.873 167.824 137.873 167.163L138.865 168.059H135.729V163.643H140.209V166.555C140.209 167.643 140.017 168.646 139.633 169.563C139.27 170.459 138.619 171.376 137.681 172.315ZM149.81 186.523C148.594 186.523 147.389 186.299 146.194 185.851C145 185.382 143.976 184.752 143.122 183.963L144.498 180.891C145.288 181.616 146.141 182.16 147.058 182.523C147.976 182.886 148.904 183.067 149.842 183.067C151.741 183.067 153.192 182.416 154.194 181.115C155.218 179.814 155.73 177.872 155.73 175.291V172.891H156.114C155.965 173.958 155.602 174.886 155.026 175.675C154.45 176.464 153.725 177.072 152.85 177.499C151.997 177.904 151.037 178.107 149.97 178.107C148.669 178.107 147.496 177.798 146.45 177.179C145.426 176.56 144.616 175.707 144.018 174.619C143.442 173.51 143.154 172.262 143.154 170.875C143.154 169.403 143.474 168.102 144.114 166.971C144.776 165.84 145.672 164.955 146.802 164.315C147.933 163.654 149.234 163.323 150.706 163.323C153.565 163.323 155.762 164.304 157.298 166.267C158.856 168.208 159.634 170.96 159.634 174.523C159.634 177.062 159.24 179.227 158.45 181.019C157.682 182.811 156.562 184.176 155.09 185.115C153.618 186.054 151.858 186.523 149.81 186.523ZM150.962 174.843C151.752 174.843 152.445 174.672 153.042 174.331C153.64 173.99 154.109 173.51 154.45 172.891C154.792 172.251 154.962 171.526 154.962 170.715C154.962 169.883 154.792 169.158 154.45 168.539C154.109 167.92 153.64 167.44 153.042 167.099C152.445 166.736 151.752 166.555 150.962 166.555C150.173 166.555 149.48 166.736 148.882 167.099C148.285 167.44 147.816 167.92 147.474 168.539C147.154 169.158 146.994 169.883 146.994 170.715C146.994 171.526 147.154 172.251 147.474 172.891C147.816 173.51 148.285 173.99 148.882 174.331C149.48 174.672 150.173 174.843 150.962 174.843ZM170.694 186.523C168.048 186.523 166.011 185.52 164.582 183.515C163.152 181.488 162.438 178.608 162.438 174.875C162.438 171.099 163.152 168.23 164.582 166.267C166.011 164.304 168.048 163.323 170.694 163.323C173.36 163.323 175.398 164.304 176.806 166.267C178.235 168.23 178.95 171.088 178.95 174.843C178.95 178.598 178.235 181.488 176.806 183.515C175.398 185.52 173.36 186.523 170.694 186.523ZM170.694 183.131C172.144 183.131 173.222 182.47 173.926 181.147C174.63 179.803 174.982 177.702 174.982 174.843C174.982 171.984 174.63 169.915 173.926 168.635C173.222 167.334 172.144 166.683 170.694 166.683C169.264 166.683 168.187 167.334 167.462 168.635C166.758 169.915 166.406 171.984 166.406 174.843C166.406 177.702 166.758 179.803 167.462 181.147C168.187 182.47 169.264 183.131 170.694 183.131ZM189.881 186.523C187.236 186.523 185.199 185.52 183.769 183.515C182.34 181.488 181.625 178.608 181.625 174.875C181.625 171.099 182.34 168.23 183.769 166.267C185.199 164.304 187.236 163.323 189.881 163.323C192.548 163.323 194.585 164.304 195.993 166.267C197.423 168.23 198.137 171.088 198.137 174.843C198.137 178.598 197.423 181.488 195.993 183.515C194.585 185.52 192.548 186.523 189.881 186.523ZM189.881 183.131C191.332 183.131 192.409 182.47 193.113 181.147C193.817 179.803 194.169 177.702 194.169 174.843C194.169 171.984 193.817 169.915 193.113 168.635C192.409 167.334 191.332 166.683 189.881 166.683C188.452 166.683 187.375 167.334 186.649 168.635C185.945 169.915 185.593 171.984 185.593 174.843C185.593 177.702 185.945 179.803 186.649 181.147C187.375 182.47 188.452 183.131 189.881 183.131Z" fill="#0B1623"/>
<path d="M45.932 237.203L41.45 224.513H43.862L47.318 234.917H46.598L50.324 224.513H52.052L55.508 234.917H54.842L58.46 224.513H60.728L56.21 237.203H54.284L50.936 227.447H51.332L47.858 237.203H45.932ZM62.4037 237.203V223.955H64.6537V229.931H64.4017C64.6777 229.283 65.1037 228.791 65.6797 228.455C66.2557 228.107 66.9157 227.933 67.6597 227.933C68.7397 227.933 69.5437 228.239 70.0717 228.851C70.5997 229.451 70.8637 230.369 70.8637 231.605V237.203H68.6137V231.713C68.6137 231.005 68.4757 230.495 68.1997 230.183C67.9357 229.859 67.5097 229.697 66.9217 229.697C66.2377 229.697 65.6857 229.913 65.2657 230.345C64.8577 230.765 64.6537 231.329 64.6537 232.037V237.203H62.4037ZM76.7594 237.383C75.9674 237.383 75.2714 237.197 74.6714 236.825C74.0714 236.441 73.6034 235.895 73.2674 235.187C72.9314 234.479 72.7634 233.633 72.7634 232.649C72.7634 231.665 72.9314 230.825 73.2674 230.129C73.6034 229.421 74.0714 228.881 74.6714 228.509C75.2714 228.125 75.9674 227.933 76.7594 227.933C77.5274 227.933 78.1994 228.125 78.7754 228.509C79.3634 228.881 79.7534 229.385 79.9454 230.021H79.7474L79.9454 228.113H82.1054C82.0694 228.485 82.0334 228.863 81.9974 229.247C81.9734 229.631 81.9614 230.009 81.9614 230.381V237.203H79.7294L79.7114 235.331H79.9274C79.7354 235.955 79.3454 236.453 78.7574 236.825C78.1694 237.197 77.5034 237.383 76.7594 237.383ZM77.3894 235.655C78.0974 235.655 78.6674 235.409 79.0994 234.917C79.5314 234.413 79.7474 233.657 79.7474 232.649C79.7474 231.641 79.5314 230.891 79.0994 230.399C78.6674 229.907 78.0974 229.661 77.3894 229.661C76.6814 229.661 76.1114 229.907 75.6794 230.399C75.2474 230.891 75.0314 231.641 75.0314 232.649C75.0314 233.657 75.2414 234.413 75.6614 234.917C76.0934 235.409 76.6694 235.655 77.3894 235.655ZM88.2995 237.383C87.2195 237.383 86.4035 237.101 85.8515 236.537C85.2995 235.973 85.0235 235.127 85.0235 233.999V229.805H83.2775V228.113H85.0235V225.791L87.2735 225.215V228.113H89.7035V229.805H87.2735V233.855C87.2735 234.479 87.3935 234.917 87.6335 235.169C87.8735 235.421 88.2035 235.547 88.6235 235.547C88.8515 235.547 89.0435 235.529 89.1995 235.493C89.3675 235.457 89.5295 235.409 89.6855 235.349V237.131C89.4815 237.215 89.2535 237.275 89.0015 237.311C88.7615 237.359 88.5275 237.383 88.2995 237.383ZM92.0958 229.391L91.1778 228.671C91.5618 228.275 91.8258 227.909 91.9698 227.573C92.1258 227.225 92.2038 226.865 92.2038 226.493L92.7618 226.997H90.9978V224.513H93.5178V226.151C93.5178 226.763 93.4098 227.327 93.1938 227.843C92.9898 228.347 92.6238 228.863 92.0958 229.391ZM98.4269 237.383C97.6469 237.383 96.9269 237.293 96.2669 237.113C95.6189 236.921 95.0729 236.657 94.6289 236.321L95.2589 234.809C95.7149 235.121 96.2189 235.361 96.7709 235.529C97.3229 235.697 97.8809 235.781 98.4449 235.781C99.0449 235.781 99.4889 235.679 99.7769 235.475C100.077 235.271 100.227 234.995 100.227 234.647C100.227 234.371 100.131 234.155 99.9389 233.999C99.7589 233.831 99.4649 233.705 99.0569 233.621L97.2569 233.279C96.4889 233.111 95.9009 232.823 95.4929 232.415C95.0969 232.007 94.8989 231.473 94.8989 230.813C94.8989 230.249 95.0489 229.751 95.3489 229.319C95.6609 228.887 96.0989 228.551 96.6629 228.311C97.2389 228.059 97.9109 227.933 98.6789 227.933C99.3509 227.933 99.9809 228.023 100.569 228.203C101.169 228.383 101.673 228.653 102.081 229.013L101.433 230.471C101.061 230.171 100.635 229.937 100.155 229.769C99.6749 229.601 99.2069 229.517 98.7509 229.517C98.1269 229.517 97.6709 229.631 97.3829 229.859C97.0949 230.075 96.9509 230.357 96.9509 230.705C96.9509 230.969 97.0349 231.191 97.2029 231.371C97.3829 231.539 97.6589 231.665 98.0309 231.749L99.8309 232.091C100.635 232.247 101.241 232.523 101.649 232.919C102.069 233.303 102.279 233.831 102.279 234.503C102.279 235.103 102.117 235.619 101.793 236.051C101.469 236.483 101.019 236.813 100.443 237.041C99.8669 237.269 99.1949 237.383 98.4269 237.383ZM109.144 237.203V228.113H111.394V237.203H109.144ZM109.018 226.403V224.207H111.52V226.403H109.018ZM113.837 237.203V230.381C113.837 230.009 113.825 229.631 113.801 229.247C113.777 228.863 113.741 228.485 113.693 228.113H115.871L116.051 229.913H115.835C116.123 229.277 116.549 228.791 117.113 228.455C117.677 228.107 118.331 227.933 119.075 227.933C120.143 227.933 120.947 228.233 121.487 228.833C122.027 229.433 122.297 230.369 122.297 231.641V237.203H120.047V231.749C120.047 231.017 119.903 230.495 119.615 230.183C119.339 229.859 118.919 229.697 118.355 229.697C117.659 229.697 117.107 229.913 116.699 230.345C116.291 230.777 116.087 231.353 116.087 232.073V237.203H113.837ZM128.859 237.383C127.923 237.383 127.101 237.191 126.393 236.807C125.697 236.423 125.157 235.877 124.773 235.169C124.389 234.449 124.197 233.597 124.197 232.613C124.197 231.629 124.389 230.789 124.773 230.093C125.169 229.397 125.715 228.863 126.411 228.491C127.107 228.119 127.923 227.933 128.859 227.933C129.459 227.933 130.041 228.029 130.605 228.221C131.181 228.401 131.649 228.665 132.009 229.013L131.325 230.579C131.001 230.279 130.635 230.057 130.227 229.913C129.831 229.757 129.441 229.679 129.057 229.679C128.253 229.679 127.623 229.931 127.167 230.435C126.723 230.939 126.501 231.671 126.501 232.631C126.501 233.591 126.723 234.329 127.167 234.845C127.623 235.361 128.253 235.619 129.057 235.619C129.429 235.619 129.813 235.547 130.209 235.403C130.617 235.259 130.989 235.037 131.325 234.737L132.009 236.285C131.637 236.633 131.163 236.903 130.587 237.095C130.023 237.287 129.447 237.383 128.859 237.383ZM133.753 237.203V223.955H136.003V237.203H133.753ZM141.723 237.383C140.607 237.383 139.773 237.077 139.221 236.465C138.669 235.853 138.393 234.917 138.393 233.657V228.113H140.643V233.639C140.643 234.311 140.781 234.809 141.057 235.133C141.333 235.445 141.753 235.601 142.317 235.601C142.953 235.601 143.469 235.385 143.865 234.953C144.273 234.521 144.477 233.951 144.477 233.243V228.113H146.727V237.203H144.531V235.349H144.783C144.519 235.997 144.117 236.501 143.577 236.861C143.049 237.209 142.431 237.383 141.723 237.383ZM152.697 237.383C151.905 237.383 151.203 237.197 150.591 236.825C149.991 236.441 149.523 235.895 149.187 235.187C148.851 234.479 148.683 233.633 148.683 232.649C148.683 231.665 148.851 230.825 149.187 230.129C149.523 229.421 149.991 228.881 150.591 228.509C151.203 228.125 151.905 227.933 152.697 227.933C153.453 227.933 154.119 228.119 154.695 228.491C155.283 228.851 155.673 229.343 155.865 229.967H155.631V223.955H157.881V237.203H155.667V235.277H155.883C155.691 235.925 155.301 236.441 154.713 236.825C154.137 237.197 153.465 237.383 152.697 237.383ZM153.327 235.655C154.035 235.655 154.605 235.409 155.037 234.917C155.469 234.413 155.685 233.657 155.685 232.649C155.685 231.641 155.469 230.891 155.037 230.399C154.605 229.907 154.035 229.661 153.327 229.661C152.619 229.661 152.043 229.907 151.599 230.399C151.167 230.891 150.951 231.641 150.951 232.649C150.951 233.657 151.167 234.413 151.599 234.917C152.043 235.409 152.619 235.655 153.327 235.655ZM164.723 237.383C163.199 237.383 162.005 236.963 161.141 236.123C160.277 235.283 159.845 234.131 159.845 232.667C159.845 231.719 160.031 230.891 160.403 230.183C160.775 229.475 161.291 228.923 161.951 228.527C162.623 228.131 163.403 227.933 164.291 227.933C165.167 227.933 165.899 228.119 166.487 228.491C167.075 228.863 167.519 229.385 167.819 230.057C168.131 230.729 168.287 231.515 168.287 232.415V233.009H161.663V231.821H166.685L166.379 232.073C166.379 231.233 166.199 230.591 165.839 230.147C165.491 229.703 164.981 229.481 164.309 229.481C163.565 229.481 162.989 229.745 162.581 230.273C162.185 230.801 161.987 231.539 161.987 232.487V232.721C161.987 233.705 162.227 234.443 162.707 234.935C163.199 235.415 163.889 235.655 164.777 235.655C165.293 235.655 165.773 235.589 166.217 235.457C166.673 235.313 167.105 235.085 167.513 234.773L168.179 236.285C167.747 236.633 167.231 236.903 166.631 237.095C166.031 237.287 165.395 237.383 164.723 237.383ZM173.721 237.383C172.929 237.383 172.227 237.197 171.615 236.825C171.015 236.441 170.547 235.895 170.211 235.187C169.875 234.479 169.707 233.633 169.707 232.649C169.707 231.665 169.875 230.825 170.211 230.129C170.547 229.421 171.015 228.881 171.615 228.509C172.227 228.125 172.929 227.933 173.721 227.933C174.477 227.933 175.143 228.119 175.719 228.491C176.307 228.851 176.697 229.343 176.889 229.967H176.655V223.955H178.905V237.203H176.691V235.277H176.907C176.715 235.925 176.325 236.441 175.737 236.825C175.161 237.197 174.489 237.383 173.721 237.383ZM174.351 235.655C175.059 235.655 175.629 235.409 176.061 234.917C176.493 234.413 176.709 233.657 176.709 232.649C176.709 231.641 176.493 230.891 176.061 230.399C175.629 229.907 175.059 229.661 174.351 229.661C173.643 229.661 173.067 229.907 172.623 230.399C172.191 230.891 171.975 231.641 171.975 232.649C171.975 233.657 172.191 234.413 172.623 234.917C173.067 235.409 173.643 235.655 174.351 235.655Z" fill="#0B1623"/>
<path d="M53.0056 265.779C52.483 265.779 51.9976 265.656 51.5496 265.411C51.1016 265.155 50.7443 264.808 50.4776 264.371C50.211 263.934 50.0776 263.448 50.0776 262.915C50.0776 262.424 50.2003 261.96 50.4456 261.523C50.7016 261.086 51.0483 260.734 51.4856 260.467C51.9336 260.19 52.4403 260.051 53.0056 260.051C53.5283 260.051 54.0083 260.179 54.4456 260.435C54.883 260.68 55.235 261.016 55.5016 261.443C55.779 261.87 55.9176 262.36 55.9176 262.915C55.9176 263.438 55.7843 263.918 55.5176 264.355C55.2616 264.792 54.9096 265.139 54.4616 265.395C54.0243 265.651 53.539 265.779 53.0056 265.779ZM66.36 267.203V266.099L70.296 261.971C70.808 261.448 71.1867 260.947 71.432 260.467C71.688 259.987 71.816 259.491 71.816 258.979C71.816 258.35 71.6187 257.875 71.224 257.555C70.84 257.224 70.2747 257.059 69.528 257.059C68.952 257.059 68.408 257.166 67.896 257.379C67.3947 257.582 66.9147 257.896 66.456 258.323L65.928 257.187C66.3653 256.76 66.9147 256.419 67.576 256.163C68.248 255.907 68.952 255.779 69.688 255.779C70.84 255.779 71.7307 256.046 72.36 256.579C72.9893 257.102 73.304 257.854 73.304 258.835C73.304 259.55 73.128 260.232 72.776 260.883C72.4347 261.523 71.928 262.184 71.256 262.867L67.816 266.355V265.939H73.768V267.203H66.36ZM80.6578 267.203V264.819H75.3618V263.747L80.8978 255.923H82.1138V263.635H83.8098V264.819H82.1138V267.203H80.6578ZM80.6578 263.635V257.683H81.0258L76.5618 263.987V263.635H80.6578ZM89.6223 267.203V255.427H91.0783V267.203H89.6223ZM97.1769 267.347C95.8969 267.347 94.8835 266.979 94.1369 266.243C93.4009 265.507 93.0329 264.494 93.0329 263.203C93.0329 262.35 93.1929 261.614 93.5129 260.995C93.8435 260.366 94.2969 259.88 94.8729 259.539C95.4489 259.187 96.1209 259.011 96.8889 259.011C97.6249 259.011 98.2489 259.171 98.7609 259.491C99.2729 259.8 99.6622 260.243 99.9289 260.819C100.196 261.395 100.329 262.078 100.329 262.867V263.347H94.1689V262.483H99.3369L99.0649 262.691C99.0649 261.859 98.8782 261.214 98.5049 260.755C98.1422 260.296 97.6035 260.067 96.8889 260.067C96.1102 260.067 95.5075 260.339 95.0809 260.883C94.6542 261.416 94.4409 262.147 94.4409 263.075V263.219C94.4409 264.2 94.6809 264.942 95.1609 265.443C95.6515 265.944 96.3289 266.195 97.1929 266.195C97.6729 266.195 98.1209 266.126 98.5369 265.987C98.9529 265.848 99.3529 265.619 99.7369 265.299L100.217 266.307C99.8542 266.638 99.4009 266.894 98.8569 267.075C98.3235 267.256 97.7635 267.347 97.1769 267.347ZM104.952 267.347C104.301 267.347 103.693 267.262 103.128 267.091C102.573 266.92 102.114 266.675 101.752 266.355L102.216 265.347C102.61 265.646 103.042 265.875 103.512 266.035C103.992 266.184 104.482 266.259 104.984 266.259C105.592 266.259 106.05 266.147 106.36 265.923C106.68 265.699 106.84 265.4 106.84 265.027C106.84 264.728 106.738 264.488 106.536 264.307C106.333 264.126 106.013 263.992 105.576 263.907L104.056 263.603C103.373 263.443 102.856 263.187 102.504 262.835C102.162 262.472 101.992 262.008 101.992 261.443C101.992 260.974 102.12 260.558 102.376 260.195C102.632 259.822 102.994 259.534 103.464 259.331C103.944 259.118 104.504 259.011 105.144 259.011C105.73 259.011 106.274 259.096 106.776 259.267C107.288 259.438 107.709 259.688 108.04 260.019L107.56 260.995C107.229 260.707 106.856 260.488 106.44 260.339C106.034 260.179 105.618 260.099 105.192 260.099C104.573 260.099 104.114 260.222 103.816 260.467C103.517 260.702 103.368 261.011 103.368 261.395C103.368 261.683 103.458 261.923 103.64 262.115C103.821 262.296 104.114 262.435 104.52 262.531L106.04 262.835C106.754 262.984 107.293 263.23 107.656 263.571C108.018 263.912 108.2 264.366 108.2 264.931C108.2 265.432 108.061 265.864 107.784 266.227C107.517 266.59 107.138 266.867 106.648 267.059C106.168 267.251 105.602 267.347 104.952 267.347ZM112.905 267.347C112.254 267.347 111.646 267.262 111.081 267.091C110.526 266.92 110.067 266.675 109.705 266.355L110.169 265.347C110.563 265.646 110.995 265.875 111.465 266.035C111.945 266.184 112.435 266.259 112.937 266.259C113.545 266.259 114.003 266.147 114.313 265.923C114.633 265.699 114.793 265.4 114.793 265.027C114.793 264.728 114.691 264.488 114.489 264.307C114.286 264.126 113.966 263.992 113.529 263.907L112.009 263.603C111.326 263.443 110.809 263.187 110.457 262.835C110.115 262.472 109.945 262.008 109.945 261.443C109.945 260.974 110.073 260.558 110.329 260.195C110.585 259.822 110.947 259.534 111.417 259.331C111.897 259.118 112.457 259.011 113.097 259.011C113.683 259.011 114.227 259.096 114.729 259.267C115.241 259.438 115.662 259.688 115.993 260.019L115.513 260.995C115.182 260.707 114.809 260.488 114.393 260.339C113.987 260.179 113.571 260.099 113.145 260.099C112.526 260.099 112.067 260.222 111.769 260.467C111.47 260.702 111.321 261.011 111.321 261.395C111.321 261.683 111.411 261.923 111.593 262.115C111.774 262.296 112.067 262.435 112.473 262.531L113.993 262.835C114.707 262.984 115.246 263.23 115.609 263.571C115.971 263.912 116.153 264.366 116.153 264.931C116.153 265.432 116.014 265.864 115.737 266.227C115.47 266.59 115.091 266.867 114.601 267.059C114.121 267.251 113.555 267.347 112.905 267.347ZM121.53 267.347C120.741 267.347 120.058 267.182 119.482 266.851C118.906 266.51 118.458 266.03 118.138 265.411C117.818 264.782 117.658 264.035 117.658 263.171C117.658 262.318 117.818 261.582 118.138 260.963C118.458 260.334 118.906 259.854 119.482 259.523C120.058 259.182 120.741 259.011 121.53 259.011C122.319 259.011 123.002 259.182 123.578 259.523C124.165 259.854 124.613 260.334 124.922 260.963C125.242 261.582 125.402 262.318 125.402 263.171C125.402 264.035 125.242 264.782 124.922 265.411C124.613 266.03 124.165 266.51 123.578 266.851C123.002 267.182 122.319 267.347 121.53 267.347ZM121.53 266.195C122.255 266.195 122.837 265.939 123.274 265.427C123.711 264.915 123.93 264.163 123.93 263.171C123.93 262.179 123.711 261.432 123.274 260.931C122.837 260.43 122.255 260.179 121.53 260.179C120.794 260.179 120.207 260.43 119.77 260.931C119.343 261.432 119.13 262.179 119.13 263.171C119.13 264.163 119.343 264.915 119.77 265.427C120.207 265.939 120.794 266.195 121.53 266.195ZM127.357 267.203V261.059C127.357 260.75 127.346 260.435 127.325 260.115C127.303 259.795 127.271 259.475 127.229 259.155H128.637L128.797 260.883H128.605C128.85 260.275 129.229 259.811 129.741 259.491C130.253 259.171 130.85 259.011 131.533 259.011C132.482 259.011 133.197 259.272 133.677 259.795C134.157 260.307 134.397 261.107 134.397 262.195V267.203H132.941V262.275C132.941 261.539 132.797 261.011 132.509 260.691C132.221 260.36 131.773 260.195 131.165 260.195C130.439 260.195 129.863 260.414 129.437 260.851C129.021 261.288 128.813 261.88 128.813 262.627V267.203H127.357ZM139.499 267.347C138.848 267.347 138.24 267.262 137.674 267.091C137.12 266.92 136.661 266.675 136.299 266.355L136.763 265.347C137.157 265.646 137.589 265.875 138.059 266.035C138.539 266.184 139.029 266.259 139.531 266.259C140.139 266.259 140.597 266.147 140.907 265.923C141.227 265.699 141.387 265.4 141.387 265.027C141.387 264.728 141.285 264.488 141.083 264.307C140.88 264.126 140.56 263.992 140.123 263.907L138.603 263.603C137.92 263.443 137.403 263.187 137.051 262.835C136.709 262.472 136.539 262.008 136.539 261.443C136.539 260.974 136.667 260.558 136.923 260.195C137.179 259.822 137.541 259.534 138.011 259.331C138.491 259.118 139.051 259.011 139.691 259.011C140.277 259.011 140.821 259.096 141.323 259.267C141.835 259.438 142.256 259.688 142.587 260.019L142.107 260.995C141.776 260.707 141.403 260.488 140.987 260.339C140.581 260.179 140.165 260.099 139.739 260.099C139.12 260.099 138.661 260.222 138.363 260.467C138.064 260.702 137.914 261.011 137.914 261.395C137.914 261.683 138.005 261.923 138.187 262.115C138.368 262.296 138.661 262.435 139.067 262.531L140.587 262.835C141.301 262.984 141.84 263.23 142.203 263.571C142.565 263.912 142.747 264.366 142.747 264.931C142.747 265.432 142.608 265.864 142.331 266.227C142.064 266.59 141.685 266.867 141.195 267.059C140.715 267.251 140.149 267.347 139.499 267.347ZM53.0056 286.779C52.483 286.779 51.9976 286.656 51.5496 286.411C51.1016 286.155 50.7443 285.808 50.4776 285.371C50.211 284.934 50.0776 284.448 50.0776 283.915C50.0776 283.424 50.2003 282.96 50.4456 282.523C50.7016 282.086 51.0483 281.734 51.4856 281.467C51.9336 281.19 52.4403 281.051 53.0056 281.051C53.5283 281.051 54.0083 281.179 54.4456 281.435C54.883 281.68 55.235 282.016 55.5016 282.443C55.779 282.87 55.9176 283.36 55.9176 283.915C55.9176 284.438 55.7843 284.918 55.5176 285.355C55.2616 285.792 54.9096 286.139 54.4616 286.395C54.0243 286.651 53.539 286.779 53.0056 286.779ZM69.72 288.347C68.952 288.347 68.216 288.23 67.512 287.995C66.8187 287.76 66.2373 287.43 65.768 287.003L66.296 285.851C66.8187 286.278 67.3573 286.587 67.912 286.779C68.4667 286.971 69.0533 287.067 69.672 287.067C70.4933 287.067 71.1173 286.896 71.544 286.555C71.9707 286.203 72.184 285.702 72.184 285.051C72.184 284.411 71.9653 283.926 71.528 283.595C71.1013 283.264 70.472 283.099 69.64 283.099H67.912V281.867H69.528C70.232 281.867 70.7973 281.686 71.224 281.323C71.6507 280.96 71.864 280.464 71.864 279.835C71.864 279.259 71.6667 278.822 71.272 278.523C70.888 278.214 70.3387 278.059 69.624 278.059C68.4187 278.059 67.3733 278.48 66.488 279.323L65.96 278.187C66.408 277.739 66.9627 277.392 67.624 277.147C68.2853 276.902 68.984 276.779 69.72 276.779C70.84 276.779 71.72 277.035 72.36 277.547C73 278.059 73.32 278.774 73.32 279.691C73.32 280.384 73.1227 280.982 72.728 281.483C72.344 281.974 71.816 282.299 71.144 282.459V282.283C71.9333 282.422 72.5467 282.747 72.984 283.259C73.4213 283.76 73.64 284.39 73.64 285.147C73.64 286.139 73.288 286.923 72.584 287.499C71.8907 288.064 70.936 288.347 69.72 288.347ZM82.8925 288.203V278.187H78.9885V276.923H88.3165V278.187H84.3965V288.203H82.8925ZM88.4969 288.203V282.123C88.4969 281.803 88.4862 281.478 88.4649 281.147C88.4542 280.806 88.4275 280.475 88.3849 280.155H89.7929L89.9689 282.171L89.7289 282.187C89.8355 281.696 90.0169 281.291 90.2729 280.971C90.5395 280.64 90.8542 280.4 91.2169 280.251C91.5902 280.091 91.9742 280.011 92.3689 280.011C92.5395 280.011 92.6835 280.016 92.8009 280.027C92.9182 280.038 93.0355 280.064 93.1529 280.107L93.1209 281.403C92.9609 281.339 92.8115 281.302 92.6729 281.291C92.5449 281.27 92.3849 281.259 92.1929 281.259C91.7235 281.259 91.3182 281.366 90.9769 281.579C90.6462 281.792 90.3902 282.075 90.2089 282.427C90.0382 282.779 89.9529 283.158 89.9529 283.563V288.203H88.4969ZM94.4348 288.203V280.155H95.8908V288.203H94.4348ZM94.3068 278.395V276.827H96.0348V278.395H94.3068ZM98.3254 291.659V282.059C98.3254 281.75 98.3147 281.435 98.2934 281.115C98.272 280.795 98.24 280.475 98.1974 280.155H99.6054L99.7814 282.011H99.6054C99.7654 281.392 100.107 280.907 100.629 280.555C101.152 280.192 101.776 280.011 102.501 280.011C103.216 280.011 103.84 280.176 104.373 280.507C104.907 280.838 105.317 281.318 105.605 281.947C105.904 282.566 106.053 283.307 106.053 284.171C106.053 285.035 105.904 285.782 105.605 286.411C105.317 287.04 104.907 287.52 104.373 287.851C103.84 288.182 103.216 288.347 102.501 288.347C101.787 288.347 101.168 288.171 100.645 287.819C100.133 287.456 99.7867 286.971 99.6054 286.363H99.7814V291.659H98.3254ZM102.165 287.195C102.901 287.195 103.488 286.939 103.925 286.427C104.363 285.915 104.581 285.163 104.581 284.171C104.581 283.179 104.363 282.432 103.925 281.931C103.488 281.43 102.901 281.179 102.165 281.179C101.429 281.179 100.843 281.43 100.405 281.931C99.9787 282.432 99.7654 283.179 99.7654 284.171C99.7654 285.163 99.9787 285.915 100.405 286.427C100.843 286.939 101.429 287.195 102.165 287.195ZM53.0056 307.779C52.483 307.779 51.9976 307.656 51.5496 307.411C51.1016 307.155 50.7443 306.808 50.4776 306.371C50.211 305.934 50.0776 305.448 50.0776 304.915C50.0776 304.424 50.2003 303.96 50.4456 303.523C50.7016 303.086 51.0483 302.734 51.4856 302.467C51.9336 302.19 52.4403 302.051 53.0056 302.051C53.5283 302.051 54.0083 302.179 54.4456 302.435C54.883 302.68 55.235 303.016 55.5016 303.443C55.779 303.87 55.9176 304.36 55.9176 304.915C55.9176 305.438 55.7843 305.918 55.5176 306.355C55.2616 306.792 54.9096 307.139 54.4616 307.395C54.0243 307.651 53.539 307.779 53.0056 307.779ZM66.376 309.203V297.923H67.864V307.923H73.48V309.203H66.376ZM77.705 309.347C76.7343 309.347 76.0037 309.086 75.513 308.563C75.033 308.04 74.793 307.235 74.793 306.147V301.155H76.249V306.115C76.249 306.819 76.393 307.336 76.681 307.667C76.969 307.998 77.417 308.163 78.025 308.163C78.6863 308.163 79.2197 307.944 79.625 307.507C80.041 307.059 80.249 306.467 80.249 305.731V301.155H81.705V309.203H80.297V307.427H80.505C80.281 308.035 79.9237 308.51 79.433 308.851C78.9423 309.182 78.3663 309.347 77.705 309.347ZM84.1535 309.203V303.059C84.1535 302.75 84.1428 302.435 84.1215 302.115C84.1002 301.795 84.0682 301.475 84.0255 301.155H85.4335L85.5935 302.883H85.4015C85.6468 302.275 86.0255 301.811 86.5375 301.491C87.0495 301.171 87.6468 301.011 88.3295 301.011C89.2788 301.011 89.9935 301.272 90.4735 301.795C90.9535 302.307 91.1935 303.107 91.1935 304.195V309.203H89.7375V304.275C89.7375 303.539 89.5935 303.011 89.3055 302.691C89.0175 302.36 88.5695 302.195 87.9615 302.195C87.2362 302.195 86.6602 302.414 86.2335 302.851C85.8175 303.288 85.6095 303.88 85.6095 304.627V309.203H84.1535ZM97.0314 309.347C96.2314 309.347 95.538 309.182 94.9514 308.851C94.3647 308.51 93.906 308.024 93.5754 307.395C93.2554 306.755 93.0954 305.998 93.0954 305.123C93.0954 304.259 93.2607 303.523 93.5914 302.915C93.922 302.296 94.3807 301.827 94.9674 301.507C95.554 301.176 96.242 301.011 97.0314 301.011C97.554 301.011 98.0607 301.102 98.5514 301.283C99.042 301.454 99.442 301.704 99.7514 302.035L99.2554 303.059C98.946 302.76 98.6047 302.542 98.2314 302.403C97.858 302.254 97.49 302.179 97.1274 302.179C96.338 302.179 95.7194 302.435 95.2714 302.947C94.8234 303.448 94.5994 304.179 94.5994 305.139C94.5994 306.11 94.8234 306.856 95.2714 307.379C95.7194 307.902 96.338 308.163 97.1274 308.163C97.4794 308.163 97.842 308.094 98.2154 307.955C98.5887 307.816 98.9354 307.598 99.2554 307.299L99.7514 308.307C99.4314 308.648 99.0207 308.91 98.5194 309.091C98.0287 309.262 97.5327 309.347 97.0314 309.347ZM101.529 309.203V297.427H102.985V302.899H102.777C103.011 302.28 103.39 301.811 103.913 301.491C104.435 301.171 105.038 301.011 105.721 301.011C106.691 301.011 107.406 301.272 107.865 301.795C108.334 302.318 108.569 303.107 108.569 304.163V309.203H107.113V304.243C107.113 303.528 106.974 303.011 106.697 302.691C106.419 302.36 105.966 302.195 105.337 302.195C104.633 302.195 104.062 302.414 103.625 302.851C103.198 303.288 102.985 303.87 102.985 304.595V309.203H101.529ZM124.401 309.347C123.91 309.134 123.452 308.872 123.025 308.563C122.598 308.243 122.225 307.928 121.905 307.619H122.257C121.788 308.163 121.228 308.59 120.577 308.899C119.926 309.198 119.222 309.347 118.465 309.347C117.686 309.347 117.014 309.23 116.449 308.995C115.884 308.75 115.452 308.414 115.153 307.987C114.854 307.55 114.705 307.038 114.705 306.451C114.705 305.726 114.918 305.107 115.345 304.595C115.772 304.072 116.374 303.566 117.153 303.075L117.681 302.755L117.473 303.011C116.982 302.499 116.62 302.035 116.385 301.619C116.161 301.192 116.049 300.75 116.049 300.291C116.049 299.79 116.166 299.352 116.401 298.979C116.646 298.606 116.988 298.312 117.425 298.099C117.862 297.886 118.374 297.779 118.961 297.779C119.718 297.779 120.337 297.987 120.817 298.403C121.308 298.819 121.553 299.384 121.553 300.099C121.553 300.494 121.473 300.862 121.313 301.203C121.164 301.534 120.908 301.864 120.545 302.195C120.193 302.515 119.713 302.856 119.105 303.219L119.137 302.899L122.177 306.163H121.857C122.134 305.715 122.348 305.182 122.497 304.563C122.657 303.934 122.748 303.267 122.769 302.563H124.033C124.001 303.448 123.873 304.275 123.649 305.043C123.425 305.811 123.116 306.483 122.721 307.059L122.705 306.659C122.982 306.958 123.313 307.256 123.697 307.555C124.092 307.843 124.513 308.088 124.961 308.291L124.401 309.347ZM118.529 308.179C119.137 308.179 119.681 308.056 120.161 307.811C120.652 307.566 121.073 307.208 121.425 306.739L121.393 307.139L117.937 303.507H118.513L118.033 303.811C117.606 304.088 117.254 304.355 116.977 304.611C116.7 304.867 116.492 305.134 116.353 305.411C116.225 305.688 116.161 306.008 116.161 306.371C116.161 306.936 116.358 307.379 116.753 307.699C117.158 308.019 117.75 308.179 118.529 308.179ZM118.961 298.835C118.492 298.835 118.113 298.968 117.825 299.235C117.548 299.502 117.409 299.854 117.409 300.291C117.409 300.515 117.446 300.728 117.521 300.931C117.606 301.123 117.74 301.336 117.921 301.571C118.113 301.795 118.364 302.083 118.673 302.435L118.289 302.483C119.014 302.046 119.537 301.656 119.857 301.315C120.188 300.974 120.353 300.595 120.353 300.179C120.353 299.763 120.225 299.438 119.969 299.203C119.724 298.958 119.388 298.835 118.961 298.835ZM130.329 309.203V297.923H134.153C135.412 297.923 136.473 298.142 137.337 298.579C138.212 299.016 138.873 299.656 139.321 300.499C139.769 301.331 139.993 302.35 139.993 303.555C139.993 304.76 139.769 305.784 139.321 306.627C138.873 307.47 138.212 308.11 137.337 308.547C136.473 308.984 135.412 309.203 134.153 309.203H130.329ZM131.817 307.939H134.041C135.545 307.939 136.66 307.576 137.385 306.851C138.11 306.126 138.473 305.027 138.473 303.555C138.473 302.083 138.11 300.99 137.385 300.275C136.66 299.55 135.545 299.187 134.041 299.187H131.817V307.939ZM142.169 309.203V301.155H143.625V309.203H142.169ZM142.041 299.395V297.827H143.769V299.395H142.041ZM146.06 309.203V303.059C146.06 302.75 146.049 302.435 146.028 302.115C146.006 301.795 145.974 301.475 145.932 301.155H147.34L147.5 302.883H147.308C147.553 302.275 147.932 301.811 148.444 301.491C148.956 301.171 149.553 301.011 150.236 301.011C151.185 301.011 151.9 301.272 152.38 301.795C152.86 302.307 153.1 303.107 153.1 304.195V309.203H151.644V304.275C151.644 303.539 151.5 303.011 151.212 302.691C150.924 302.36 150.476 302.195 149.868 302.195C149.142 302.195 148.566 302.414 148.14 302.851C147.724 303.288 147.516 303.88 147.516 304.627V309.203H146.06ZM155.482 309.203V303.059C155.482 302.75 155.471 302.435 155.45 302.115C155.428 301.795 155.396 301.475 155.354 301.155H156.762L156.922 302.883H156.73C156.975 302.275 157.354 301.811 157.866 301.491C158.378 301.171 158.975 301.011 159.658 301.011C160.607 301.011 161.322 301.272 161.802 301.795C162.282 302.307 162.522 303.107 162.522 304.195V309.203H161.066V304.275C161.066 303.539 160.922 303.011 160.634 302.691C160.346 302.36 159.898 302.195 159.29 302.195C158.564 302.195 157.988 302.414 157.562 302.851C157.146 303.288 156.938 303.88 156.938 304.627V309.203H155.482ZM168.568 309.347C167.288 309.347 166.274 308.979 165.528 308.243C164.792 307.507 164.424 306.494 164.424 305.203C164.424 304.35 164.584 303.614 164.904 302.995C165.234 302.366 165.688 301.88 166.264 301.539C166.84 301.187 167.512 301.011 168.28 301.011C169.016 301.011 169.64 301.171 170.152 301.491C170.664 301.8 171.053 302.243 171.32 302.819C171.586 303.395 171.72 304.078 171.72 304.867V305.347H165.56V304.483H170.728L170.456 304.691C170.456 303.859 170.269 303.214 169.896 302.755C169.533 302.296 168.994 302.067 168.28 302.067C167.501 302.067 166.898 302.339 166.472 302.883C166.045 303.416 165.832 304.147 165.832 305.075V305.219C165.832 306.2 166.072 306.942 166.552 307.443C167.042 307.944 167.72 308.195 168.584 308.195C169.064 308.195 169.512 308.126 169.928 307.987C170.344 307.848 170.744 307.619 171.128 307.299L171.608 308.307C171.245 308.638 170.792 308.894 170.248 309.075C169.714 309.256 169.154 309.347 168.568 309.347ZM173.606 309.203V303.123C173.606 302.803 173.596 302.478 173.574 302.147C173.564 301.806 173.537 301.475 173.494 301.155H174.902L175.078 303.171L174.838 303.187C174.945 302.696 175.126 302.291 175.382 301.971C175.649 301.64 175.964 301.4 176.326 301.251C176.7 301.091 177.084 301.011 177.478 301.011C177.649 301.011 177.793 301.016 177.91 301.027C178.028 301.038 178.145 301.064 178.262 301.107L178.23 302.403C178.07 302.339 177.921 302.302 177.782 302.291C177.654 302.27 177.494 302.259 177.302 302.259C176.833 302.259 176.428 302.366 176.086 302.579C175.756 302.792 175.5 303.075 175.318 303.427C175.148 303.779 175.062 304.158 175.062 304.563V309.203H173.606ZM184.211 309.203V302.275H182.643V301.155H184.611L184.211 301.523V300.227C184.211 299.288 184.446 298.579 184.915 298.099C185.384 297.608 186.067 297.363 186.963 297.363C187.176 297.363 187.4 297.379 187.635 297.411C187.88 297.443 188.083 297.496 188.243 297.571V298.755C188.115 298.702 187.955 298.659 187.763 298.627C187.571 298.595 187.384 298.579 187.203 298.579C186.883 298.579 186.606 298.643 186.371 298.771C186.136 298.899 185.96 299.091 185.843 299.347C185.726 299.592 185.667 299.918 185.667 300.323V301.459L185.443 301.155H187.891V302.275H185.667V309.203H184.211ZM192.452 309.347C191.662 309.347 190.98 309.182 190.404 308.851C189.828 308.51 189.38 308.03 189.06 307.411C188.74 306.782 188.58 306.035 188.58 305.171C188.58 304.318 188.74 303.582 189.06 302.963C189.38 302.334 189.828 301.854 190.404 301.523C190.98 301.182 191.662 301.011 192.452 301.011C193.241 301.011 193.924 301.182 194.5 301.523C195.086 301.854 195.534 302.334 195.844 302.963C196.164 303.582 196.324 304.318 196.324 305.171C196.324 306.035 196.164 306.782 195.844 307.411C195.534 308.03 195.086 308.51 194.5 308.851C193.924 309.182 193.241 309.347 192.452 309.347ZM192.452 308.195C193.177 308.195 193.758 307.939 194.196 307.427C194.633 306.915 194.852 306.163 194.852 305.171C194.852 304.179 194.633 303.432 194.196 302.931C193.758 302.43 193.177 302.179 192.452 302.179C191.716 302.179 191.129 302.43 190.692 302.931C190.265 303.432 190.052 304.179 190.052 305.171C190.052 306.163 190.265 306.915 190.692 307.427C191.129 307.939 191.716 308.195 192.452 308.195ZM198.263 309.203V303.123C198.263 302.803 198.252 302.478 198.231 302.147C198.22 301.806 198.193 301.475 198.151 301.155H199.559L199.735 303.171L199.495 303.187C199.601 302.696 199.783 302.291 200.039 301.971C200.305 301.64 200.62 301.4 200.983 301.251C201.356 301.091 201.74 301.011 202.135 301.011C202.305 301.011 202.449 301.016 202.567 301.027C202.684 301.038 202.801 301.064 202.919 301.107L202.887 302.403C202.727 302.339 202.577 302.302 202.439 302.291C202.311 302.27 202.151 302.259 201.959 302.259C201.489 302.259 201.084 302.366 200.743 302.579C200.412 302.792 200.156 303.075 199.975 303.427C199.804 303.779 199.719 304.158 199.719 304.563V309.203H198.263ZM209.187 309.203V307.939H211.827V299.187H212.579L209.427 301.139V299.683L212.243 297.923H213.315V307.939H215.795V309.203H209.187ZM222.861 309.203V306.819H217.565V305.747L223.101 297.923H224.317V305.635H226.013V306.819H224.317V309.203H222.861ZM222.861 305.635V299.683H223.229L218.765 305.987V305.635H222.861ZM231.985 309.203V297.923H235.809C237.068 297.923 238.129 298.142 238.993 298.579C239.868 299.016 240.529 299.656 240.977 300.499C241.425 301.331 241.649 302.35 241.649 303.555C241.649 304.76 241.425 305.784 240.977 306.627C240.529 307.47 239.868 308.11 238.993 308.547C238.129 308.984 237.068 309.203 235.809 309.203H231.985ZM233.473 307.939H235.697C237.201 307.939 238.316 307.576 239.041 306.851C239.767 306.126 240.129 305.027 240.129 303.555C240.129 302.083 239.767 300.99 239.041 300.275C238.316 299.55 237.201 299.187 235.697 299.187H233.473V307.939ZM246.897 309.347C246.193 309.347 245.575 309.182 245.041 308.851C244.508 308.52 244.092 308.04 243.793 307.411C243.495 306.782 243.345 306.035 243.345 305.171C243.345 304.307 243.495 303.566 243.793 302.947C244.092 302.318 244.508 301.838 245.041 301.507C245.575 301.176 246.193 301.011 246.897 301.011C247.612 301.011 248.231 301.192 248.753 301.555C249.287 301.907 249.639 302.392 249.809 303.011H249.617L249.793 301.155H251.201C251.169 301.475 251.137 301.795 251.105 302.115C251.084 302.435 251.073 302.75 251.073 303.059V309.203H249.617V307.363H249.793C249.623 307.971 249.271 308.456 248.737 308.819C248.215 309.171 247.601 309.347 246.897 309.347ZM247.233 308.195C247.959 308.195 248.54 307.939 248.977 307.427C249.415 306.915 249.633 306.163 249.633 305.171C249.633 304.179 249.415 303.432 248.977 302.931C248.54 302.43 247.959 302.179 247.233 302.179C246.508 302.179 245.921 302.43 245.473 302.931C245.036 303.432 244.817 304.179 244.817 305.171C244.817 306.163 245.036 306.915 245.473 307.427C245.911 307.939 246.497 308.195 247.233 308.195ZM253.163 312.835L252.827 311.651C253.328 311.534 253.744 311.395 254.075 311.235C254.405 311.086 254.683 310.888 254.907 310.643C255.131 310.398 255.328 310.088 255.499 309.715L255.899 308.755L255.867 309.363L252.363 301.155H253.931L256.731 308.051H256.315L259.115 301.155H260.619L256.923 309.827C256.699 310.35 256.453 310.787 256.187 311.139C255.931 311.491 255.648 311.779 255.339 312.003C255.04 312.227 254.709 312.403 254.347 312.531C253.984 312.659 253.589 312.76 253.163 312.835ZM264.545 309.347C263.895 309.347 263.287 309.262 262.721 309.091C262.167 308.92 261.708 308.675 261.345 308.355L261.809 307.347C262.204 307.646 262.636 307.875 263.105 308.035C263.585 308.184 264.076 308.259 264.577 308.259C265.185 308.259 265.644 308.147 265.953 307.923C266.273 307.699 266.433 307.4 266.433 307.027C266.433 306.728 266.332 306.488 266.129 306.307C265.927 306.126 265.607 305.992 265.169 305.907L263.649 305.603C262.967 305.443 262.449 305.187 262.097 304.835C261.756 304.472 261.585 304.008 261.585 303.443C261.585 302.974 261.713 302.558 261.969 302.195C262.225 301.822 262.588 301.534 263.057 301.331C263.537 301.118 264.097 301.011 264.737 301.011C265.324 301.011 265.868 301.096 266.369 301.267C266.881 301.438 267.303 301.688 267.633 302.019L267.153 302.995C266.823 302.707 266.449 302.488 266.033 302.339C265.628 302.179 265.212 302.099 264.785 302.099C264.167 302.099 263.708 302.222 263.409 302.467C263.111 302.702 262.961 303.011 262.961 303.395C262.961 303.683 263.052 303.923 263.233 304.115C263.415 304.296 263.708 304.435 264.113 304.531L265.633 304.835C266.348 304.984 266.887 305.23 267.249 305.571C267.612 305.912 267.793 306.366 267.793 306.931C267.793 307.432 267.655 307.864 267.377 308.227C267.111 308.59 266.732 308.867 266.241 309.059C265.761 309.251 265.196 309.347 264.545 309.347ZM53.0056 328.779C52.483 328.779 51.9976 328.656 51.5496 328.411C51.1016 328.155 50.7443 327.808 50.4776 327.371C50.211 326.934 50.0776 326.448 50.0776 325.915C50.0776 325.424 50.2003 324.96 50.4456 324.523C50.7016 324.086 51.0483 323.734 51.4856 323.467C51.9336 323.19 52.4403 323.051 53.0056 323.051C53.5283 323.051 54.0083 323.179 54.4456 323.435C54.883 323.68 55.235 324.016 55.5016 324.443C55.779 324.87 55.9176 325.36 55.9176 325.915C55.9176 326.438 55.7843 326.918 55.5176 327.355C55.2616 327.792 54.9096 328.139 54.4616 328.395C54.0243 328.651 53.539 328.779 53.0056 328.779ZM71.352 330.347C70.2213 330.347 69.2507 330.112 68.44 329.643C67.64 329.174 67.0267 328.507 66.6 327.643C66.1733 326.768 65.96 325.739 65.96 324.555C65.96 323.371 66.1733 322.347 66.6 321.483C67.0267 320.619 67.64 319.952 68.44 319.483C69.2507 319.014 70.2213 318.779 71.352 318.779C72.1627 318.779 72.8827 318.902 73.512 319.147C74.1413 319.382 74.6907 319.728 75.16 320.187L74.616 321.387C74.104 320.939 73.5973 320.619 73.096 320.427C72.6053 320.224 72.0347 320.123 71.384 320.123C70.136 320.123 69.1813 320.507 68.52 321.275C67.8587 322.043 67.528 323.136 67.528 324.555C67.528 325.974 67.8587 327.072 68.52 327.851C69.1813 328.619 70.136 329.003 71.384 329.003C72.0347 329.003 72.6053 328.907 73.096 328.715C73.5973 328.512 74.104 328.187 74.616 327.739L75.16 328.923C74.6907 329.382 74.136 329.734 73.496 329.979C72.8667 330.224 72.152 330.347 71.352 330.347ZM79.9755 330.347C79.2715 330.347 78.6528 330.182 78.1195 329.851C77.5862 329.52 77.1702 329.04 76.8715 328.411C76.5728 327.782 76.4235 327.035 76.4235 326.171C76.4235 325.307 76.5728 324.566 76.8715 323.947C77.1702 323.318 77.5862 322.838 78.1195 322.507C78.6528 322.176 79.2715 322.011 79.9755 322.011C80.6902 322.011 81.3088 322.192 81.8315 322.555C82.3648 322.907 82.7168 323.392 82.8875 324.011H82.6955L82.8715 322.155H84.2795C84.2475 322.475 84.2155 322.795 84.1835 323.115C84.1622 323.435 84.1515 323.75 84.1515 324.059V330.203H82.6955V328.363H82.8715C82.7008 328.971 82.3488 329.456 81.8155 329.819C81.2928 330.171 80.6795 330.347 79.9755 330.347ZM80.3115 329.195C81.0368 329.195 81.6182 328.939 82.0555 328.427C82.4928 327.915 82.7115 327.163 82.7115 326.171C82.7115 325.179 82.4928 324.432 82.0555 323.931C81.6182 323.43 81.0368 323.179 80.3115 323.179C79.5862 323.179 78.9995 323.43 78.5515 323.931C78.1142 324.432 77.8955 325.179 77.8955 326.171C77.8955 327.163 78.1142 327.915 78.5515 328.427C78.9888 328.939 79.5755 329.195 80.3115 329.195ZM86.591 330.203V324.059C86.591 323.75 86.5803 323.435 86.559 323.115C86.5377 322.795 86.5057 322.475 86.463 322.155H87.871L88.031 323.883H87.839C88.0523 323.286 88.3937 322.827 88.863 322.507C89.3323 322.176 89.8923 322.011 90.543 322.011C91.2043 322.011 91.7483 322.171 92.175 322.491C92.6017 322.8 92.8897 323.291 93.039 323.963H92.799C93.0017 323.366 93.359 322.891 93.871 322.539C94.383 322.187 94.9803 322.011 95.663 322.011C96.5483 322.011 97.215 322.272 97.663 322.795C98.111 323.307 98.335 324.107 98.335 325.195V330.203H96.879V325.275C96.879 324.539 96.751 324.011 96.495 323.691C96.239 323.36 95.8337 323.195 95.279 323.195C94.6283 323.195 94.1163 323.419 93.743 323.867C93.3697 324.304 93.183 324.902 93.183 325.659V330.203H91.727V325.275C91.727 324.539 91.599 324.011 91.343 323.691C91.0977 323.36 90.6923 323.195 90.127 323.195C89.4763 323.195 88.9643 323.419 88.591 323.867C88.2283 324.304 88.047 324.902 88.047 325.659V330.203H86.591ZM100.716 333.659V324.059C100.716 323.75 100.705 323.435 100.684 323.115C100.663 322.795 100.631 322.475 100.588 322.155H101.996L102.172 324.011H101.996C102.156 323.392 102.497 322.907 103.02 322.555C103.543 322.192 104.167 322.011 104.892 322.011C105.607 322.011 106.231 322.176 106.764 322.507C107.297 322.838 107.708 323.318 107.996 323.947C108.295 324.566 108.444 325.307 108.444 326.171C108.444 327.035 108.295 327.782 107.996 328.411C107.708 329.04 107.297 329.52 106.764 329.851C106.231 330.182 105.607 330.347 104.892 330.347C104.177 330.347 103.559 330.171 103.036 329.819C102.524 329.456 102.177 328.971 101.996 328.363H102.172V333.659H100.716ZM104.556 329.195C105.292 329.195 105.879 328.939 106.316 328.427C106.753 327.915 106.972 327.163 106.972 326.171C106.972 325.179 106.753 324.432 106.316 323.931C105.879 323.43 105.292 323.179 104.556 323.179C103.82 323.179 103.233 323.43 102.796 323.931C102.369 324.432 102.156 325.179 102.156 326.171C102.156 327.163 102.369 327.915 102.796 328.427C103.233 328.939 103.82 329.195 104.556 329.195ZM118.286 330.347C117.006 330.347 115.993 329.979 115.246 329.243C114.51 328.507 114.142 327.494 114.142 326.203C114.142 325.35 114.302 324.614 114.622 323.995C114.953 323.366 115.406 322.88 115.982 322.539C116.558 322.187 117.23 322.011 117.998 322.011C118.734 322.011 119.358 322.171 119.87 322.491C120.382 322.8 120.772 323.243 121.038 323.819C121.305 324.395 121.438 325.078 121.438 325.867V326.347H115.278V325.483H120.446L120.174 325.691C120.174 324.859 119.988 324.214 119.614 323.755C119.252 323.296 118.713 323.067 117.998 323.067C117.22 323.067 116.617 323.339 116.19 323.883C115.764 324.416 115.55 325.147 115.55 326.075V326.219C115.55 327.2 115.79 327.942 116.27 328.443C116.761 328.944 117.438 329.195 118.302 329.195C118.782 329.195 119.23 329.126 119.646 328.987C120.062 328.848 120.462 328.619 120.846 328.299L121.326 329.307C120.964 329.638 120.51 329.894 119.966 330.075C119.433 330.256 118.873 330.347 118.286 330.347ZM123.341 330.203V324.059C123.341 323.75 123.33 323.435 123.309 323.115C123.288 322.795 123.256 322.475 123.213 322.155H124.621L124.781 323.883H124.589C124.834 323.275 125.213 322.811 125.725 322.491C126.237 322.171 126.834 322.011 127.517 322.011C128.466 322.011 129.181 322.272 129.661 322.795C130.141 323.307 130.381 324.107 130.381 325.195V330.203H128.925V325.275C128.925 324.539 128.781 324.011 128.493 323.691C128.205 323.36 127.757 323.195 127.149 323.195C126.424 323.195 125.848 323.414 125.421 323.851C125.005 324.288 124.797 324.88 124.797 325.627V330.203H123.341ZM135.771 330.347C134.928 330.347 134.288 330.118 133.851 329.659C133.424 329.19 133.211 328.486 133.211 327.547V323.275H131.643V322.155H133.211V319.995L134.667 319.595V322.155H136.939V323.275H134.667V327.419C134.667 328.038 134.774 328.48 134.987 328.747C135.211 329.003 135.531 329.131 135.947 329.131C136.16 329.131 136.342 329.115 136.491 329.083C136.651 329.04 136.795 328.992 136.923 328.939V330.139C136.763 330.203 136.576 330.251 136.363 330.283C136.16 330.326 135.963 330.347 135.771 330.347ZM142.052 330.347C140.772 330.347 139.759 329.979 139.012 329.243C138.276 328.507 137.908 327.494 137.908 326.203C137.908 325.35 138.068 324.614 138.388 323.995C138.719 323.366 139.172 322.88 139.748 322.539C140.324 322.187 140.996 322.011 141.764 322.011C142.5 322.011 143.124 322.171 143.636 322.491C144.148 322.8 144.537 323.243 144.804 323.819C145.071 324.395 145.204 325.078 145.204 325.867V326.347H139.044V325.483H144.212L143.94 325.691C143.94 324.859 143.753 324.214 143.38 323.755C143.017 323.296 142.479 323.067 141.764 323.067C140.985 323.067 140.383 323.339 139.956 323.883C139.529 324.416 139.316 325.147 139.316 326.075V326.219C139.316 327.2 139.556 327.942 140.036 328.443C140.527 328.944 141.204 329.195 142.068 329.195C142.548 329.195 142.996 329.126 143.412 328.987C143.828 328.848 144.228 328.619 144.612 328.299L145.092 329.307C144.729 329.638 144.276 329.894 143.732 330.075C143.199 330.256 142.639 330.347 142.052 330.347ZM147.091 330.203V324.123C147.091 323.803 147.08 323.478 147.059 323.147C147.048 322.806 147.021 322.475 146.979 322.155H148.387L148.563 324.171L148.323 324.187C148.429 323.696 148.611 323.291 148.867 322.971C149.133 322.64 149.448 322.4 149.811 322.251C150.184 322.091 150.568 322.011 150.963 322.011C151.133 322.011 151.277 322.016 151.395 322.027C151.512 322.038 151.629 322.064 151.747 322.107L151.715 323.403C151.555 323.339 151.405 323.302 151.267 323.291C151.139 323.27 150.979 323.259 150.787 323.259C150.317 323.259 149.912 323.366 149.571 323.579C149.24 323.792 148.984 324.075 148.803 324.427C148.632 324.779 148.547 325.158 148.547 325.563V330.203H147.091ZM156.474 330.347C155.631 330.347 154.991 330.118 154.554 329.659C154.127 329.19 153.914 328.486 153.914 327.547V323.275H152.346V322.155H153.914V319.995L155.37 319.595V322.155H157.642V323.275H155.37V327.419C155.37 328.038 155.477 328.48 155.69 328.747C155.914 329.003 156.234 329.131 156.65 329.131C156.863 329.131 157.045 329.115 157.194 329.083C157.354 329.04 157.498 328.992 157.626 328.939V330.139C157.466 330.203 157.279 330.251 157.066 330.283C156.863 330.326 156.666 330.347 156.474 330.347ZM162.241 330.347C161.537 330.347 160.918 330.182 160.385 329.851C159.852 329.52 159.436 329.04 159.137 328.411C158.838 327.782 158.689 327.035 158.689 326.171C158.689 325.307 158.838 324.566 159.137 323.947C159.436 323.318 159.852 322.838 160.385 322.507C160.918 322.176 161.537 322.011 162.241 322.011C162.956 322.011 163.574 322.192 164.097 322.555C164.63 322.907 164.982 323.392 165.153 324.011H164.961L165.137 322.155H166.545C166.513 322.475 166.481 322.795 166.449 323.115C166.428 323.435 166.417 323.75 166.417 324.059V330.203H164.961V328.363H165.137C164.966 328.971 164.614 329.456 164.081 329.819C163.558 330.171 162.945 330.347 162.241 330.347ZM162.577 329.195C163.302 329.195 163.884 328.939 164.321 328.427C164.758 327.915 164.977 327.163 164.977 326.171C164.977 325.179 164.758 324.432 164.321 323.931C163.884 323.43 163.302 323.179 162.577 323.179C161.852 323.179 161.265 323.43 160.817 323.931C160.38 324.432 160.161 325.179 160.161 326.171C160.161 327.163 160.38 327.915 160.817 328.427C161.254 328.939 161.841 329.195 162.577 329.195ZM168.857 330.203V322.155H170.313V330.203H168.857ZM168.729 320.395V318.827H170.457V320.395H168.729ZM172.747 330.203V324.059C172.747 323.75 172.737 323.435 172.715 323.115C172.694 322.795 172.662 322.475 172.619 322.155H174.027L174.187 323.883H173.995C174.241 323.275 174.619 322.811 175.131 322.491C175.643 322.171 176.241 322.011 176.923 322.011C177.873 322.011 178.587 322.272 179.067 322.795C179.547 323.307 179.787 324.107 179.787 325.195V330.203H178.331V325.275C178.331 324.539 178.187 324.011 177.899 323.691C177.611 323.36 177.163 323.195 176.555 323.195C175.83 323.195 175.254 323.414 174.827 323.851C174.411 324.288 174.203 324.88 174.203 325.627V330.203H172.747ZM182.169 330.203V324.059C182.169 323.75 182.158 323.435 182.137 323.115C182.116 322.795 182.084 322.475 182.041 322.155H183.449L183.609 323.883H183.417C183.63 323.286 183.972 322.827 184.441 322.507C184.91 322.176 185.47 322.011 186.121 322.011C186.782 322.011 187.326 322.171 187.753 322.491C188.18 322.8 188.468 323.291 188.617 323.963H188.377C188.58 323.366 188.937 322.891 189.449 322.539C189.961 322.187 190.558 322.011 191.241 322.011C192.126 322.011 192.793 322.272 193.241 322.795C193.689 323.307 193.913 324.107 193.913 325.195V330.203H192.457V325.275C192.457 324.539 192.329 324.011 192.073 323.691C191.817 323.36 191.412 323.195 190.857 323.195C190.206 323.195 189.694 323.419 189.321 323.867C188.948 324.304 188.761 324.902 188.761 325.659V330.203H187.305V325.275C187.305 324.539 187.177 324.011 186.921 323.691C186.676 323.36 186.27 323.195 185.705 323.195C185.054 323.195 184.542 323.419 184.169 323.867C183.806 324.304 183.625 324.902 183.625 325.659V330.203H182.169ZM199.958 330.347C198.678 330.347 197.665 329.979 196.918 329.243C196.182 328.507 195.814 327.494 195.814 326.203C195.814 325.35 195.974 324.614 196.294 323.995C196.625 323.366 197.078 322.88 197.654 322.539C198.23 322.187 198.902 322.011 199.67 322.011C200.406 322.011 201.03 322.171 201.542 322.491C202.054 322.8 202.443 323.243 202.71 323.819C202.977 324.395 203.11 325.078 203.11 325.867V326.347H196.95V325.483H202.118L201.846 325.691C201.846 324.859 201.659 324.214 201.286 323.755C200.923 323.296 200.385 323.067 199.67 323.067C198.891 323.067 198.289 323.339 197.862 323.883C197.435 324.416 197.222 325.147 197.222 326.075V326.219C197.222 327.2 197.462 327.942 197.942 328.443C198.433 328.944 199.11 329.195 199.974 329.195C200.454 329.195 200.902 329.126 201.318 328.987C201.734 328.848 202.134 328.619 202.518 328.299L202.998 329.307C202.635 329.638 202.182 329.894 201.638 330.075C201.105 330.256 200.545 330.347 199.958 330.347ZM205.013 330.203V324.059C205.013 323.75 205.002 323.435 204.981 323.115C204.96 322.795 204.928 322.475 204.885 322.155H206.293L206.453 323.883H206.261C206.506 323.275 206.885 322.811 207.397 322.491C207.909 322.171 208.506 322.011 209.189 322.011C210.138 322.011 210.853 322.272 211.333 322.795C211.813 323.307 212.053 324.107 212.053 325.195V330.203H210.597V325.275C210.597 324.539 210.453 324.011 210.165 323.691C209.877 323.36 209.429 323.195 208.821 323.195C208.096 323.195 207.52 323.414 207.093 323.851C206.677 324.288 206.469 324.88 206.469 325.627V330.203H205.013ZM217.443 330.347C216.6 330.347 215.96 330.118 215.523 329.659C215.096 329.19 214.883 328.486 214.883 327.547V323.275H213.315V322.155H214.883V319.995L216.339 319.595V322.155H218.611V323.275H216.339V327.419C216.339 328.038 216.445 328.48 216.659 328.747C216.883 329.003 217.203 329.131 217.619 329.131C217.832 329.131 218.013 329.115 218.163 329.083C218.323 329.04 218.467 328.992 218.595 328.939V330.139C218.435 330.203 218.248 330.251 218.035 330.283C217.832 330.326 217.635 330.347 217.443 330.347ZM227.429 330.347C226.725 330.347 226.106 330.182 225.573 329.851C225.039 329.52 224.623 329.04 224.325 328.411C224.026 327.782 223.877 327.035 223.877 326.171C223.877 325.307 224.026 324.566 224.325 323.947C224.623 323.318 225.039 322.838 225.573 322.507C226.106 322.176 226.725 322.011 227.429 322.011C228.143 322.011 228.762 322.192 229.285 322.555C229.818 322.907 230.17 323.392 230.341 324.011H230.149L230.325 322.155H231.733C231.701 322.475 231.669 322.795 231.637 323.115C231.615 323.435 231.605 323.75 231.605 324.059V330.203H230.149V328.363H230.325C230.154 328.971 229.802 329.456 229.269 329.819C228.746 330.171 228.133 330.347 227.429 330.347ZM227.765 329.195C228.49 329.195 229.071 328.939 229.509 328.427C229.946 327.915 230.165 327.163 230.165 326.171C230.165 325.179 229.946 324.432 229.509 323.931C229.071 323.43 228.49 323.179 227.765 323.179C227.039 323.179 226.453 323.43 226.005 323.931C225.567 324.432 225.349 325.179 225.349 326.171C225.349 327.163 225.567 327.915 226.005 328.427C226.442 328.939 227.029 329.195 227.765 329.195ZM237.5 330.347C236.7 330.347 236.007 330.182 235.42 329.851C234.833 329.51 234.375 329.024 234.044 328.395C233.724 327.755 233.564 326.998 233.564 326.123C233.564 325.259 233.729 324.523 234.06 323.915C234.391 323.296 234.849 322.827 235.436 322.507C236.023 322.176 236.711 322.011 237.5 322.011C238.023 322.011 238.529 322.102 239.02 322.283C239.511 322.454 239.911 322.704 240.22 323.035L239.724 324.059C239.415 323.76 239.073 323.542 238.7 323.403C238.327 323.254 237.959 323.179 237.596 323.179C236.807 323.179 236.188 323.435 235.74 323.947C235.292 324.448 235.068 325.179 235.068 326.139C235.068 327.11 235.292 327.856 235.74 328.379C236.188 328.902 236.807 329.163 237.596 329.163C237.948 329.163 238.311 329.094 238.684 328.955C239.057 328.816 239.404 328.598 239.724 328.299L240.22 329.307C239.9 329.648 239.489 329.91 238.988 330.091C238.497 330.262 238.001 330.347 237.5 330.347ZM245.021 330.347C244.178 330.347 243.538 330.118 243.101 329.659C242.674 329.19 242.461 328.486 242.461 327.547V323.275H240.893V322.155H242.461V319.995L243.917 319.595V322.155H246.189V323.275H243.917V327.419C243.917 328.038 244.024 328.48 244.237 328.747C244.461 329.003 244.781 329.131 245.197 329.131C245.41 329.131 245.592 329.115 245.741 329.083C245.901 329.04 246.045 328.992 246.173 328.939V330.139C246.013 330.203 245.826 330.251 245.613 330.283C245.41 330.326 245.213 330.347 245.021 330.347ZM247.716 330.203V322.155H249.172V330.203H247.716ZM247.588 320.395V318.827H249.316V320.395H247.588ZM253.975 330.203L250.535 322.155H252.103L254.903 329.067H254.455L257.303 322.155H258.791L255.335 330.203H253.975ZM260.154 330.203V322.155H261.61V330.203H260.154ZM260.026 320.395V318.827H261.754V320.395H260.026ZM267.052 330.347C266.209 330.347 265.569 330.118 265.132 329.659C264.705 329.19 264.492 328.486 264.492 327.547V323.275H262.924V322.155H264.492V319.995L265.948 319.595V322.155H268.22V323.275H265.948V327.419C265.948 328.038 266.055 328.48 266.268 328.747C266.492 329.003 266.812 329.131 267.228 329.131C267.441 329.131 267.623 329.115 267.772 329.083C267.932 329.04 268.076 328.992 268.204 328.939V330.139C268.044 330.203 267.857 330.251 267.644 330.283C267.441 330.326 267.244 330.347 267.052 330.347ZM269.747 330.203V322.155H271.203V330.203H269.747ZM269.619 320.395V318.827H271.347V320.395H269.619ZM277.302 330.347C276.022 330.347 275.009 329.979 274.262 329.243C273.526 328.507 273.158 327.494 273.158 326.203C273.158 325.35 273.318 324.614 273.638 323.995C273.969 323.366 274.422 322.88 274.998 322.539C275.574 322.187 276.246 322.011 277.014 322.011C277.75 322.011 278.374 322.171 278.886 322.491C279.398 322.8 279.787 323.243 280.054 323.819C280.321 324.395 280.454 325.078 280.454 325.867V326.347H274.294V325.483H279.462L279.19 325.691C279.19 324.859 279.003 324.214 278.63 323.755C278.267 323.296 277.729 323.067 277.014 323.067C276.235 323.067 275.633 323.339 275.206 323.883C274.779 324.416 274.566 325.147 274.566 326.075V326.219C274.566 327.2 274.806 327.942 275.286 328.443C275.777 328.944 276.454 329.195 277.318 329.195C277.798 329.195 278.246 329.126 278.662 328.987C279.078 328.848 279.478 328.619 279.862 328.299L280.342 329.307C279.979 329.638 279.526 329.894 278.982 330.075C278.449 330.256 277.889 330.347 277.302 330.347ZM285.077 330.347C284.426 330.347 283.818 330.262 283.253 330.091C282.698 329.92 282.239 329.675 281.877 329.355L282.341 328.347C282.735 328.646 283.167 328.875 283.637 329.035C284.117 329.184 284.607 329.259 285.109 329.259C285.717 329.259 286.175 329.147 286.485 328.923C286.805 328.699 286.965 328.4 286.965 328.027C286.965 327.728 286.863 327.488 286.661 327.307C286.458 327.126 286.138 326.992 285.701 326.907L284.181 326.603C283.498 326.443 282.981 326.187 282.629 325.835C282.287 325.472 282.117 325.008 282.117 324.443C282.117 323.974 282.245 323.558 282.501 323.195C282.757 322.822 283.119 322.534 283.589 322.331C284.069 322.118 284.629 322.011 285.269 322.011C285.855 322.011 286.399 322.096 286.901 322.267C287.413 322.438 287.834 322.688 288.165 323.019L287.685 323.995C287.354 323.707 286.981 323.488 286.565 323.339C286.159 323.179 285.743 323.099 285.317 323.099C284.698 323.099 284.239 323.222 283.941 323.467C283.642 323.702 283.493 324.011 283.493 324.395C283.493 324.683 283.583 324.923 283.765 325.115C283.946 325.296 284.239 325.435 284.645 325.531L286.165 325.835C286.879 325.984 287.418 326.23 287.781 326.571C288.143 326.912 288.325 327.366 288.325 327.931C288.325 328.432 288.186 328.864 287.909 329.227C287.642 329.59 287.263 329.867 286.773 330.059C286.293 330.251 285.727 330.347 285.077 330.347Z" fill="#0B1623"/>
<g filter="url(#filter1_d_2818_2014)">
<rect x="41" y="382.203" width="287" height="48" rx="24" fill="#FFA3C4" shape-rendering="crispEdges"/>
<rect x="41.5" y="382.703" width="286" height="47" rx="23.5" stroke="#0B1623" shape-rendering="crispEdges"/>
<path d="M148.376 412.203V400.923H152.968C154.184 400.923 155.117 401.179 155.768 401.691C156.419 402.203 156.744 402.923 156.744 403.851C156.744 404.555 156.531 405.142 156.104 405.611C155.688 406.08 155.117 406.395 154.392 406.555V406.315C155.224 406.411 155.869 406.699 156.328 407.179C156.797 407.659 157.032 408.294 157.032 409.083C157.032 410.086 156.696 410.859 156.024 411.403C155.352 411.936 154.403 412.203 153.176 412.203H148.376ZM149.816 411.019H153.032C153.821 411.019 154.44 410.87 154.888 410.571C155.347 410.262 155.576 409.755 155.576 409.051C155.576 408.336 155.347 407.83 154.888 407.531C154.44 407.232 153.821 407.083 153.032 407.083H149.816V411.019ZM149.816 405.899H152.76C153.603 405.899 154.232 405.739 154.648 405.419C155.064 405.088 155.272 404.614 155.272 403.995C155.272 403.376 155.064 402.907 154.648 402.587C154.232 402.256 153.603 402.091 152.76 402.091H149.816V405.899ZM162.53 412.347C161.741 412.347 161.058 412.182 160.482 411.851C159.906 411.51 159.458 411.03 159.138 410.411C158.818 409.782 158.658 409.035 158.658 408.171C158.658 407.318 158.818 406.582 159.138 405.963C159.458 405.334 159.906 404.854 160.482 404.523C161.058 404.182 161.741 404.011 162.53 404.011C163.319 404.011 164.002 404.182 164.578 404.523C165.165 404.854 165.613 405.334 165.922 405.963C166.242 406.582 166.402 407.318 166.402 408.171C166.402 409.035 166.242 409.782 165.922 410.411C165.613 411.03 165.165 411.51 164.578 411.851C164.002 412.182 163.319 412.347 162.53 412.347ZM162.53 411.195C163.255 411.195 163.837 410.939 164.274 410.427C164.711 409.915 164.93 409.163 164.93 408.171C164.93 407.179 164.711 406.432 164.274 405.931C163.837 405.43 163.255 405.179 162.53 405.179C161.794 405.179 161.207 405.43 160.77 405.931C160.343 406.432 160.13 407.179 160.13 408.171C160.13 409.163 160.343 409.915 160.77 410.427C161.207 410.939 161.794 411.195 162.53 411.195ZM171.749 412.347C170.959 412.347 170.277 412.182 169.701 411.851C169.125 411.51 168.677 411.03 168.357 410.411C168.037 409.782 167.877 409.035 167.877 408.171C167.877 407.318 168.037 406.582 168.357 405.963C168.677 405.334 169.125 404.854 169.701 404.523C170.277 404.182 170.959 404.011 171.749 404.011C172.538 404.011 173.221 404.182 173.797 404.523C174.383 404.854 174.831 405.334 175.141 405.963C175.461 406.582 175.621 407.318 175.621 408.171C175.621 409.035 175.461 409.782 175.141 410.411C174.831 411.03 174.383 411.51 173.797 411.851C173.221 412.182 172.538 412.347 171.749 412.347ZM171.749 411.195C172.474 411.195 173.055 410.939 173.493 410.427C173.93 409.915 174.149 409.163 174.149 408.171C174.149 407.179 173.93 406.432 173.493 405.931C173.055 405.43 172.474 405.179 171.749 405.179C171.013 405.179 170.426 405.43 169.989 405.931C169.562 406.432 169.349 407.179 169.349 408.171C169.349 409.163 169.562 409.915 169.989 410.427C170.426 410.939 171.013 411.195 171.749 411.195ZM177.575 412.203V400.427H179.031V407.707H179.063L182.695 404.155H184.503L180.183 408.379L180.199 407.691L184.887 412.203H183.031L179.063 408.459H179.031V412.203H177.575ZM190.169 412.203V406.059C190.169 405.75 190.158 405.435 190.137 405.115C190.116 404.795 190.084 404.475 190.041 404.155H191.449L191.609 405.883H191.417C191.662 405.275 192.041 404.811 192.553 404.491C193.065 404.171 193.662 404.011 194.345 404.011C195.294 404.011 196.009 404.272 196.489 404.795C196.969 405.307 197.209 406.107 197.209 407.195V412.203H195.753V407.275C195.753 406.539 195.609 406.011 195.321 405.691C195.033 405.36 194.585 405.195 193.977 405.195C193.252 405.195 192.676 405.414 192.249 405.851C191.833 406.288 191.625 406.88 191.625 407.627V412.203H190.169ZM202.983 412.347C202.194 412.347 201.511 412.182 200.935 411.851C200.359 411.51 199.911 411.03 199.591 410.411C199.271 409.782 199.111 409.035 199.111 408.171C199.111 407.318 199.271 406.582 199.591 405.963C199.911 405.334 200.359 404.854 200.935 404.523C201.511 404.182 202.194 404.011 202.983 404.011C203.772 404.011 204.455 404.182 205.031 404.523C205.618 404.854 206.066 405.334 206.375 405.963C206.695 406.582 206.855 407.318 206.855 408.171C206.855 409.035 206.695 409.782 206.375 410.411C206.066 411.03 205.618 411.51 205.031 411.851C204.455 412.182 203.772 412.347 202.983 412.347ZM202.983 411.195C203.708 411.195 204.29 410.939 204.727 410.427C205.164 409.915 205.383 409.163 205.383 408.171C205.383 407.179 205.164 406.432 204.727 405.931C204.29 405.43 203.708 405.179 202.983 405.179C202.247 405.179 201.66 405.43 201.223 405.931C200.796 406.432 200.583 407.179 200.583 408.171C200.583 409.163 200.796 409.915 201.223 410.427C201.66 410.939 202.247 411.195 202.983 411.195ZM210.861 412.203L207.853 404.155H209.373L211.805 411.051H211.389L213.885 404.155H215.069L217.549 411.051H217.149L219.597 404.155H221.053L218.029 412.203H216.653L214.093 405.195H214.797L212.253 412.203H210.861Z" fill="#0B1623"/>
</g>
</g>
<defs>
<filter id="filter0_d_2818_2014" x="0" y="0.203125" width="371" height="474" filterUnits="userSpaceOnUse" color-interpolation-filters="sRGB">
<feFlood flood-opacity="0" result="BackgroundImageFix"/>
<feColorMatrix in="SourceAlpha" type="matrix" values="0 0 0 0 0 0 0 0 0 0 0 0 0 0 0 0 0 0 127 0" result="hardAlpha"/>
<feOffset dx="2" dy="3"/>
<feComposite in2="hardAlpha" operator="out"/>
<feColorMatrix type="matrix" values="0 0 0 0 0 0 0 0 0 0.0862745 0 0 0 0 0.160784 0 0 0 1 0"/>
<feBlend mode="normal" in2="BackgroundImageFix" result="effect1_dropShadow_2818_2014"/>
<feBlend mode="normal" in="SourceGraphic" in2="effect1_dropShadow_2818_2014" result="shape"/>
</filter>
<filter id="filter1_d_2818_2014" x="41" y="382.203" width="289" height="51" filterUnits="userSpaceOnUse" color-interpolation-filters="sRGB">
<feFlood flood-opacity="0" result="BackgroundImageFix"/>
<feColorMatrix in="SourceAlpha" type="matrix" values="0 0 0 0 0 0 0 0 0 0 0 0 0 0 0 0 0 0 127 0" result="hardAlpha"/>
<feOffset dx="2" dy="3"/>
<feComposite in2="hardAlpha" operator="out"/>
<feColorMatrix type="matrix" values="0 0 0 0 0.0431373 0 0 0 0 0.0862745 0 0 0 0 0.137255 0 0 0 1 0"/>
<feBlend mode="normal" in2="BackgroundImageFix" result="effect1_dropShadow_2818_2014"/>
<feBlend mode="normal" in="SourceGraphic" in2="effect1_dropShadow_2818_2014" result="shape"/>
</filter>
</defs>
</svg>
